<?xml version="1.0" encoding="UTF-8" standalone="no"?>
<!-- Created with Inkscape (http://www.inkscape.org/) -->

<svg
   version="1.1"
   id="svg1"
   width="1005.0963"
   height="656.43976"
   viewBox="0 0 1005.0963 656.43976"
   sodipodi:docname="logoMolecular.svg"
   inkscape:version="1.4.2 (f4327f4, 2025-05-13)"
   xmlns:inkscape="http://www.inkscape.org/namespaces/inkscape"
   xmlns:sodipodi="http://sodipodi.sourceforge.net/DTD/sodipodi-0.dtd"
   xmlns="http://www.w3.org/2000/svg"
   xmlns:svg="http://www.w3.org/2000/svg">
  <defs
     id="defs1" />
  <sodipodi:namedview
     id="namedview1"
     pagecolor="#505050"
     bordercolor="#ffffff"
     borderopacity="1"
     inkscape:showpageshadow="0"
     inkscape:pageopacity="0"
     inkscape:pagecheckerboard="1"
     inkscape:deskcolor="#505050"
     inkscape:zoom="0.49121094"
     inkscape:cx="501.82107"
     inkscape:cy="452.96222"
     inkscape:window-width="1366"
     inkscape:window-height="705"
     inkscape:window-x="-8"
     inkscape:window-y="-8"
     inkscape:window-maximized="1"
     inkscape:current-layer="g1" />
  <g
     inkscape:groupmode="layer"
     inkscape:label="Image"
     id="g1"
     transform="translate(-10.268473,-58.891285)">
    <path
       style="fill:#019feb;stroke-width:1.23655;fill-opacity:1"
       d="M 57.66374,714.19765 C 49.071281,711.77157 44.432841,706.17997 43.24962,696.8216 41.286646,681.29603 51.823623,621.89232 63.034098,585.2838 65.094109,578.5567 72.577954,556.25107 79.664873,535.71574 98.51233,481.1026 103.08585,462.01616 104.19132,433.36092 105.72629,393.57185 97.04478,366.76863 63.782093,308.60184 32.169599,253.32068 19.588276,218.63895 12.360296,166.85211 9.8958524,149.19503 9.5133774,109.92847 11.725208,101.65112 c 2.002756,-7.494914 9.082403,-14.169061 16.269258,-15.337421 11.495322,-1.868761 22.182188,1.693342 25.550564,8.516392 0.671438,1.360066 2.018661,11.603559 2.993811,22.763279 3.292775,37.68242 7.307215,59.81919 16.170812,89.17071 9.179405,30.39723 17.368571,48.68155 44.977587,100.42358 15.75563,29.5276 22.12054,43.80306 26.97991,60.51166 5.94499,20.44131 6.82371,27.87912 6.76872,57.29296 -0.0715,38.27095 -4.05836,59.41104 -20.22959,107.26729 -26.59842,78.71379 -32.75707,103.24153 -37.795626,150.52662 -2.063906,19.36894 -4.105393,23.68796 -13.37014,28.28612 -6.811346,3.3805 -16.620647,4.75056 -22.376774,3.12534 z m 160.95903,-0.91686 c -9.70898,-4.56527 -11.30269,-8.33121 -13.61319,-32.16791 -3.85464,-39.76722 -9.60308,-74.83353 -19.06046,-116.27143 -20.75139,-90.92292 -18.2277,-150.9498 8.85667,-210.6607 24.20749,-53.36839 70.74322,-115.87263 128.20428,-172.19696 60.84536,-59.64166 105.88192,-86.880741 155.07429,-93.792231 13.25357,-1.862122 35.73244,-0.793756 44.53607,2.116684 21.84537,7.221981 40.22173,23.329427 56.84524,49.826667 3.83544,6.11357 3.83544,6.11357 9.89863,-2.57498 5.39621,-7.73272 13.27624,-17.87814 24.10974,-31.04081 5.88056,-7.144877 21.10105,-20.360616 31.96462,-27.754418 18.33004,-12.475508 37.84623,-18.559488 63.2224,-19.708955 46.80796,-2.120249 89.95057,16.317684 121.62847,51.980583 4.93928,5.56061 9.80312,11.41938 10.80858,13.01951 1.82806,2.90933 1.82806,2.90933 7.38715,0.24354 8.53459,-4.09267 20.38268,-4.74563 27.15784,-1.49668 7.98275,3.82803 10.69534,10.08902 11.34408,26.18378 0.49948,12.3902 0.49948,12.3902 8.43953,13.00607 11.32338,0.87834 21.74448,6.54247 30.15434,16.3897 10.77638,12.61854 15.90099,27.31043 17.08509,48.98152 0.6049,11.07255 -1.12681,37.23361 -2.77254,41.88264 -0.36397,1.02852 0.0612,2.08585 0.94583,2.34963 19.49735,5.81586 29.91966,12.47912 41.89547,26.78498 8.10271,9.67913 15.95126,26.36873 19.8833,42.28118 2.2137,8.95757 2.7107,14.33155 2.7388,29.61209 0.02,10.79529 -0.6553,22.46934 -1.601,27.68085 -2.4153,13.30792 -9.94573,37.47133 -15.30931,49.12375 -4.7027,10.21666 -4.7027,10.21666 3.17772,17.36237 19.20559,17.41489 26.61129,41.03466 22.75099,72.56195 -1.5489,12.65065 -7.2653,32.98613 -10.6228,37.78982 -2.1164,3.0278 -2.1164,3.0278 -20.77352,-6.13095 -10.26137,-5.0373 -24.50511,-12.33833 -31.65303,-16.22448 -7.1477,-3.88615 -13.61603,-7.06575 -14.37396,-7.06575 -2.0715,0 -0.268,17.61564 2.40526,23.4926 2.19447,4.82408 2.19447,4.82408 -1.93226,7.58895 -4.7741,3.19861 -4.82229,3.15522 -8.78795,-7.90686 -3.51087,-9.79351 -4.19143,-24.16457 -1.64628,-34.76202 3.45438,-14.38343 9.26278,-25.66356 24.78489,-48.13349 8.25983,-11.95704 15.01792,-22.42122 15.01792,-23.25372 0,-0.8325 -4.53744,-4.25264 -10.08339,-7.60036 -45.73991,-27.61089 -54.16083,-53.53473 -40.8078,-125.62825 2.16828,-11.70612 3.21717,-20.11082 2.54047,-20.35534 -0.63383,-0.22907 -5.5105,-3.32385 -10.8368,-6.87731 -11.84929,-7.90521 -22.63571,-18.54681 -28.84248,-28.45509 -2.56653,-4.09714 -9.12948,-12.23887 -14.58437,-18.09276 -17.46043,-18.73766 -20.99424,-29.9293 -22.00072,-69.67704 -0.6798,-26.84656 -0.6798,-26.84656 -14.33753,-15.98306 -33.50512,26.65028 -79.06647,52.43763 -109.57566,62.01892 -21.9746,6.90104 -47.94104,9.7972 -65.60802,7.3176 -27.62078,-3.87665 -43.84909,-15.12775 -62.75065,-43.50498 -4.46157,-6.69821 -4.46157,-6.69821 -16.57496,6.4745 -29.28479,31.84573 -57.55503,47.55663 -88.91854,49.41564 -22.39118,1.32721 -44.78913,-5.99786 -56.21528,-18.38465 -4.04733,-4.38764 -5.09048,-6.98665 -11.33136,-28.23229 -5.3165,-18.09875 -17.01622,-52.13723 -17.92171,-52.1404 -0.41577,-8e-4 -5.76011,4.13411 -11.87629,9.19011 -39.03722,32.27056 -92.19565,93.42059 -122.94775,141.43114 -37.50867,58.559 -50.60051,102.34843 -48.69602,162.87801 0.97183,30.88739 3.81411,49.23002 15.72599,101.4873 12.04248,52.83043 18.53808,94.40372 18.77606,120.17127 0.14762,15.98353 -0.82744,18.71782 -8.76239,24.57238 -4.7275,3.48804 -16.03333,3.91842 -22.5417,0.85814 z M 1000.4967,552.51028 c 3.5278,-15.22485 5.8359,-13.24291 -26.28041,-22.56686 -15.51339,-4.50386 -28.78318,-8.40297 -29.488,-8.66473 -1.44363,-0.53592 -6.02467,9.5204 -4.89496,10.7452 1.09513,1.18711 55.85178,28.55051 57.39739,28.68292 0.73702,0.0632 2.20659,-3.62529 3.26598,-8.19653 z m 3.9918,-47.81488 c -0.228,-0.24713 -9.73102,-3.12937 -21.11781,-6.40499 -20.70326,-5.95571 -20.70326,-5.95571 -24.09892,-1.6462 -4.50649,5.71925 -9.57035,13.89639 -8.98189,14.50381 0.43416,0.44796 46.14988,11.61877 51.53882,12.5937 2.1718,0.39288 2.4053,-0.3852 2.7247,-9.08363 0.1922,-5.23236 0.1631,-9.71558 -0.065,-9.96269 z m -6.92971,-16.20211 c -1.71337,-3.47054 -11.07886,-13.65686 -16.06614,-17.47413 -3.70915,-2.83903 -3.70915,-2.83903 -8.10268,4.33458 -2.41646,3.94547 -4.10474,7.4869 -3.7514,7.86986 0.57274,0.62083 26.05419,7.80225 28.37218,7.99604 0.51278,0.0429 0.30947,-1.18396 -0.45196,-2.72635 z m -25.84074,-49.95543 c 4.80319,-2.10947 9.60471,-4.98502 10.66979,-6.3901 1.77556,-2.3425 7.64921,-23.04146 6.76177,-23.82897 -0.63357,-0.56233 -43.88514,19.37744 -44.11503,20.3379 -0.17825,0.74464 16.43947,13.71659 17.57153,13.71659 0.20813,0 4.30851,-1.72593 9.11194,-3.83542 z m -9.67487,-32.62344 c 21.84659,-10.16946 29.02254,-13.86967 29.94388,-15.44043 0.49399,-0.84217 0.90613,-7.69014 0.9163,-15.21769 0.0174,-13.68647 0.0174,-13.68647 -17.49942,-5.72845 -9.63458,4.3769 -24.99956,11.07729 -34.1443,14.88974 -9.14474,3.81245 -16.8099,7.07151 -17.03358,7.24235 -1.05551,0.80587 3.66993,14.68484 6.84254,20.09769 3.56228,6.07758 3.56228,6.07758 11.0334,3.01955 4.10893,-1.68191 13.08261,-5.67015 19.94118,-8.86276 z m -8.19262,-41.29696 c 40.39258,-19.64368 36.89774,-17.5712 36.05476,-21.3803 -0.68452,-3.09232 -6.53792,-18.02474 -7.06572,-18.02474 -0.14112,0 -5.81322,2.82284 -12.60475,6.27301 -6.7917,3.45015 -19.637,9.31754 -28.54541,13.03862 -16.19686,6.76562 -16.19686,6.76562 -16.87799,12.71736 -1.6218,14.17128 -2.22759,22.04525 -1.69576,22.04525 0.31409,0 14.14477,-6.60113 30.73487,-14.6692 z m 0.18146,-40.06348 c 1.76627,-1.29127 0.49942,-1.97172 -8.31341,-4.46508 -5.71849,-1.61792 -11.29483,-3.44303 -12.39189,-4.05581 -1.6878,-0.94267 -2.18368,-0.0742 -3.22225,5.64194 -3.28057,18.05611 -4.26314,16.9935 9.55167,10.33077 6.76067,-3.26064 13.22973,-6.61396 14.37588,-7.45182 z m 16.23457,-16.90581 c -4.7778,-5.6454 -16.35512,-13.12336 -24.97899,-16.1344 -4.47178,-1.56131 -8.33551,-2.58414 -8.58602,-2.27292 -0.25077,0.31118 -0.80611,3.04464 -1.23423,6.07432 -0.77862,5.5085 -0.77862,5.5085 4.88209,8.13949 7.76032,3.60685 19.14884,6.36502 30.51094,7.38941 2.07972,0.18749 2.02647,-0.10002 -0.59379,-3.1959 z m -46.339,-18.0642 c 1.00295,-3.79111 1.00295,-3.79111 -10.13151,-7.61007 -6.12386,-2.1004 -11.13443,-3.48898 -11.13443,-3.08569 0,1.87381 18.88905,15.93837 19.92947,14.83924 0.1834,-0.19381 0.78483,-2.05837 1.33647,-4.14348 z m 5.30334,-36.26469 c 0.81964,-10.73774 0.81964,-10.73774 -2.48311,-8.14383 -4.81027,3.77804 -18.87511,19.51231 -17.51987,19.59953 0.63439,0.0408 4.8944,1.13449 9.46672,2.43035 9.80895,2.78001 9.20341,3.5782 10.53626,-13.88605 z m -15.29013,-9.21824 c 14.90246,-14.80604 14.90246,-14.80604 14.19289,-21.24344 -0.89731,-8.1402 -4.13866,-21.24347 -5.25475,-21.24347 -0.4659,0 -1.86522,1.22166 -3.10943,2.71481 -1.78255,2.13889 -15.24991,14.8887 -35.41701,33.52997 -0.654,0.60445 -0.49932,3.86073 0.38727,8.15545 1.37135,6.64332 1.86865,7.3708 7.02668,10.27938 3.05302,1.72157 5.93811,3.01384 6.41136,2.87174 0.47326,-0.14212 7.56661,-6.9211 15.76299,-15.06444 z M 867.56637,196.8781 c 0.82974,-4.92007 0.82974,-4.92007 -5.29177,1.51734 -5.96172,6.26934 -6.10317,6.58787 -5.41795,12.20152 0.38699,3.17025 2.40505,9.5433 4.48457,14.1623 3.781,8.39818 3.781,8.39818 4.58819,-7.28146 0.44396,-8.62379 1.1806,-17.89367 1.63696,-20.5997 z m -374.91084,29.20277 c 5.40137,-1.4038 12.03305,-3.77591 14.7371,-5.2714 4.91639,-2.71903 4.91639,-2.71903 4.13614,-40.24739 -0.42914,-20.64062 -0.78123,-44.33594 -0.78246,-52.65629 -0.002,-15.12791 -0.002,-15.12791 -7.87694,-15.12791 -8.30788,0 -31.39369,3.49482 -32.64869,4.94249 -0.40585,0.46815 0.21912,8.67262 1.38879,18.23219 2.09342,17.10925 8.25704,84.14731 8.25656,89.80186 -2.8e-4,3.52047 0.45509,3.53211 12.7895,0.32645 z m -28.86266,-2.90141 c -0.55492,-4.79347 -2.12967,-28.28549 -4.81096,-71.76963 -1.02583,-16.63657 -1.99636,-30.39055 -2.15672,-30.5644 -0.58581,-0.63508 -22.94448,10.1783 -32.18415,15.56527 -6.71107,3.91273 -9.39938,6.1671 -9.1549,7.67706 0.19035,1.17572 5.14455,17.64183 11.00927,36.5913 8.42754,27.23009 11.37617,35.22679 14.06392,38.14127 3.73978,4.05527 14.01024,8.43565 19.93283,8.50142 3.58408,0.0398 3.7594,-0.18021 3.30071,-4.14229 z m 450.7451,-35.29478 c 0,-4.73023 -17.22491,-14.59514 -25.48421,-14.59514 -3.42161,0 -4.12167,0.5254 -4.71794,3.54056 -1.69053,8.54913 -2.9809,23.83392 -3.01476,35.71038 -0.0369,12.85758 -0.0369,12.85758 16.59012,-5.13267 9.14478,-9.89464 16.62679,-18.68005 16.62679,-19.52313 z m -255.80493,15.3388 c -0.42409,-6.196 -1.82671,-31.49242 -3.11692,-56.21426 -1.29024,-24.72185 -2.53418,-45.15297 -2.76436,-45.40249 -0.93109,-1.00942 -28.29743,30.904 -39.62003,46.20316 -18.21741,24.61545 -17.23905,20.99407 -8.88573,32.89006 9.08604,12.93946 18.15345,21.887 26.85116,26.49624 6.89815,3.65558 18.46788,6.99823 24.88778,7.19042 3.41919,0.10231 3.41919,0.10231 2.6481,-11.16313 z m 34.98387,7.95417 c 13.17737,-2.70988 28.42517,-8.02678 28.42517,-9.91186 0,-0.8381 -3.45022,-26.44987 -7.66717,-56.91507 -4.21694,-30.46519 -8.02684,-58.432945 -8.46641,-62.150549 -0.93723,-7.926324 -0.81143,-7.890202 -14.22418,-4.0837 -10.0944,2.864763 -25.46233,10.866445 -25.45843,13.255559 8e-4,0.797426 0.78406,9.56101 1.73948,19.47462 1.55143,16.09769 5.06621,60.29704 7.24352,91.08937 0.79661,11.26545 0.79661,11.26545 4.68165,11.26545 2.13677,0 8.31363,-0.91072 13.72637,-2.02382 z M 552.39832,186.27151 c 6.90651,-7.49413 14.03276,-15.77218 15.83611,-18.3956 3.27883,-4.76986 3.27883,-4.76986 -4.53291,-17.4906 -9.81182,-15.97772 -20.69939,-27.48764 -30.63905,-32.3905 -4.11013,-2.02736 -7.66386,-3.48563 -7.89718,-3.24063 -0.4405,0.46263 1.65374,57.0448 2.96265,80.04425 0.74782,13.14025 0.74782,13.14025 6.23045,9.11953 3.01548,-2.2114 11.13344,-10.15229 18.03993,-17.64645 z m 198.37776,2.0594 c 13.3083,-7.38345 32.76311,-19.80642 33.76229,-21.55911 0.33837,-0.5935 -2.13348,-7.62578 -5.49302,-15.6273 -3.3595,-8.00152 -7.85334,-18.89346 -9.98628,-24.20433 -7.42222,-18.48081 -19.58659,-46.776621 -21.39695,-49.771866 -1.74969,-2.894904 -2.412,-3.014899 -16.64019,-3.014899 -16.48847,0 -15.82739,-0.480023 -13.04264,9.470628 3.08308,11.016694 15.2912,82.671127 17.85413,104.793417 0.4307,3.71759 1.19268,6.75927 1.69328,6.75927 0.50059,0 6.46282,-3.08059 13.24938,-6.84581 z m 113.15377,-7.23827 c 7.54502,-9.69255 8.05032,-10.75871 9.76204,-20.59724 2.24964,-12.93042 1.88962,-18.55757 -1.22833,-19.19886 -1.25886,-0.25892 -5.98445,1.46739 -10.50132,3.83622 -8.19669,4.2987 -8.21114,4.31567 -7.52218,8.82886 0.37967,2.48703 0.69619,11.90879 0.70337,20.93726 0.009,9.02849 0.19679,16.4154 0.42131,16.4154 0.22453,0 3.98882,-4.59974 8.36511,-10.22164 z M 828.43315,135.524 c 1.65234,-0.59707 -11.371,-17.5796 -20.09606,-26.20544 -9.03146,-8.92873 -21.84801,-18.855167 -30.37645,-23.526602 -12.72703,-6.971179 -12.60845,-7.260559 -4.55739,11.122857 6.52861,14.907105 18.49127,43.720815 22.89052,55.134945 1.729,4.48598 1.729,4.48598 16.3397,-5.80506 8.03589,-5.66009 15.14573,-10.48437 15.79968,-10.7207 z M 303.5029,637.44792 c -2.61277,-1.05244 -4.90291,-1.92227 -5.08919,-1.93294 -0.18628,-0.0101 0.20058,-1.11177 0.85969,-2.44689 1.1315,-2.29197 1.48397,-2.31618 6.31367,-0.4334 6.50726,2.53674 11.27225,1.39201 12.27737,-2.9495 1.14474,-4.94443 -0.0582,-6.62501 -6.36844,-8.89716 -9.55724,-3.4413 -12.96555,-9.03424 -10.22444,-16.77806 1.76201,-4.97774 10.78575,-7.19719 18.06994,-4.44442 3.18446,1.20346 3.54642,1.76443 2.5026,3.87882 -0.96092,1.94643 -1.69801,2.19471 -3.46763,1.16801 -3.33205,-1.93318 -10.2148,-1.57975 -11.89168,0.61065 -3.01085,3.9329 -0.48223,7.8548 6.96132,10.79704 8.33185,3.29339 9.66184,4.77945 9.87889,11.03836 0.32285,9.3096 -9.59625,14.50858 -19.8221,10.38949 z m 34.44124,0.99626 c -5.68835,-1.53137 -10.47348,-10.00705 -9.38193,-16.61788 2.02079,-12.23916 14.83584,-16.82886 22.56597,-8.082 2.72098,3.07889 3.30574,4.88681 3.30574,10.22048 0,5.47708 -0.54079,7.05114 -3.49438,10.17085 -3.55431,3.75421 -8.70774,5.46282 -12.9954,4.30855 z m 9.11062,-6.36682 c 1.49333,-1.46508 2.17186,-3.94738 2.17186,-7.94541 0,-7.18078 -2.48918,-10.52355 -7.83632,-10.52355 -4.80109,0 -7.60286,3.79565 -7.60286,10.29986 0,6.38225 2.8133,10.29984 7.39651,10.29984 2.03441,0 4.67627,-0.95882 5.87081,-2.13074 z m 15.76256,5.09284 c -1.34101,-1.45373 -1.7144,-6.04483 -1.7144,-21.0788 0,-18.36195 0.10604,-19.22027 2.37526,-19.22027 2.26604,0 2.37524,0.85832 2.37524,18.66849 0,17.81017 0.10915,18.66848 2.37527,18.66848 1.30639,0 2.37525,0.80152 2.37525,1.78113 0,2.55286 -5.7208,3.42052 -7.78662,1.18097 z m 19.37896,1.19731 c -5.32288,-0.76131 -6.84183,-4.60668 -6.84183,-17.32069 0,-10.44254 0.1804,-11.30087 2.37526,-11.30087 2.18447,0 2.37526,0.85833 2.37526,10.6861 0,6.59477 0.54565,11.27763 1.42514,12.23109 1.96626,2.13157 5.84813,1.93346 8.99926,-0.45924 2.35091,-1.78509 2.63951,-3.12248 2.63951,-12.23108 0,-9.36854 0.19936,-10.22687 2.37526,-10.22687 2.23131,0 2.37527,0.85833 2.37527,14.16231 0,13.30398 -0.14396,14.1623 -2.37527,14.1623 -1.30639,0 -2.37526,-0.54981 -2.37526,-1.22178 0,-0.69256 -1.67191,-0.52748 -3.85978,0.38109 -2.1229,0.8816 -5.32367,1.39351 -7.11282,1.13764 z m 70.74228,0.0436 c -7.24517,-1.38616 -11.73106,-13.12486 -8.1457,-21.31571 2.39482,-5.47103 6.5069,-7.95075 12.7379,-7.68139 8.39872,0.36307 13.96714,9.01329 11.6938,18.16568 -1.99413,8.02825 -8.46017,12.32866 -16.286,10.83142 z m 9.63929,-7.06452 c 2.44398,-3.78269 2.37865,-12.3946 -0.11675,-15.3838 -2.59264,-3.10569 -8.95551,-3.05781 -11.58089,0.0872 -2.76511,3.3123 -2.80442,12.35713 -0.068,15.63512 2.96109,3.54711 9.37426,3.36261 11.76554,-0.33846 z m 182.62003,6.5264 c -5.63139,-1.71468 -8.83005,-7.78717 -8.21055,-15.58721 0.2735,-3.44376 1.42104,-7.24775 2.6194,-8.68329 4.66219,-5.58479 15.50018,-5.60588 20.14726,-0.0392 1.15496,1.38353 2.36347,5.05014 2.68556,8.14807 1.23618,11.88928 -6.73474,19.36088 -17.24167,16.16161 z m 9.75656,-5.68622 c 5.8566,-6.34897 2.48925,-18.57843 -5.11556,-18.57843 -5.69388,0 -7.86175,2.84018 -7.86175,10.29986 0,5.09188 0.53883,7.0721 2.30536,8.47242 3.05188,2.41923 8.35034,2.323 10.67195,-0.19382 z m 56.0119,6.21247 c -8.27728,-1.29224 -12.57684,-8.10952 -12.57684,-19.94156 0,-8.46554 2.9548,-14.78848 8.38664,-17.94653 4.60626,-2.67807 8.09691,-2.91767 14.4856,-0.9943 3.9454,1.1878 4.319,1.63756 3.21612,3.87164 -0.98607,1.99739 -1.71934,2.25416 -3.4952,1.22385 -2.90096,-1.68308 -9.05104,-1.67188 -11.97029,0.0217 -5.63979,3.27212 -7.56122,14.98062 -3.79215,23.10801 2.57831,5.55973 7.82389,7.55414 14.24744,5.41693 3.34747,-1.11374 4.57256,-1.08561 5.2799,0.1213 1.54705,2.6396 1.10856,3.26514 -2.90239,4.14027 -6.75995,1.47493 -7.35648,1.52859 -10.87883,0.97868 z m -302.07215,-3.22558 c -7.59043,-8.78418 -5.61869,-20.48967 4.21091,-24.99868 4.85732,-2.22813 13.64606,-0.28072 12.56145,2.78338 -0.49206,1.39009 -1.93175,1.66529 -5.74649,1.09847 -4.17895,-0.62095 -5.54043,-0.26791 -7.60714,1.97255 -3.36399,3.64683 -3.44023,12.02812 -0.14197,15.6037 2.48467,2.69356 8.83175,3.50306 10.09485,1.28747 1.21494,-2.1311 2.96906,-1.45183 2.96906,1.14974 0,4.99275 -12.26426,5.82086 -16.34067,1.10337 z m 23.46644,-11.2655 c 0,-13.30395 0.14396,-14.16229 2.37526,-14.16229 2.23131,0 2.37527,0.85834 2.37527,14.16229 0,13.304 -0.14396,14.16232 -2.37527,14.16232 -2.2313,0 -2.37526,-0.85832 -2.37526,-14.16232 z m 43.94227,0 c 0,-11.36012 0.3329,-14.16229 1.68248,-14.16229 0.92536,0 1.86798,0.60325 2.09468,1.34057 0.26005,0.84575 1.79905,0.59049 4.16983,-0.69163 4.38139,-2.3695 8.72785,-1.57224 11.85839,2.17513 1.67052,1.99967 2.26068,5.21164 2.58082,14.04651 0.40918,11.2911 0.37539,11.45405 -2.37526,11.45509 -2.69529,8.1e-4 -2.78347,-0.32314 -2.58927,-9.51802 0.28005,-13.25994 -3.17267,-17.79048 -10.37397,-13.61242 -1.9934,1.15654 -2.29717,2.77392 -2.29717,12.23108 0,10.03998 -0.18707,10.8983 -2.37527,10.8983 -2.2313,0 -2.37526,-0.85832 -2.37526,-14.16232 z m 31.97463,10.39891 c -2.77621,-3.00964 -3.46803,-4.87917 -3.45403,-9.33425 0.0233,-7.42215 2.09564,-11.54324 7.15783,-14.2344 3.33111,-1.77088 5.06379,-1.96386 8.47238,-0.94356 5.24787,1.57084 6.82902,3.51395 7.72392,9.49225 0.69172,4.62105 0.69172,4.62105 -8.96469,4.62105 -8.86467,0 -9.65642,0.21114 -9.65642,2.57498 0,1.41623 1.12123,3.79047 2.4916,5.27608 2.50452,2.71508 5.89144,2.84941 12.65067,0.50169 2.00557,-0.69664 2.67215,-0.42026 2.67215,1.10793 0,2.94138 -3.78439,4.70164 -10.10811,4.70164 -4.51065,0 -6.14536,-0.68467 -8.9853,-3.76341 z m 14.81709,-14.05152 c 1.27455,-2.23566 -2.98112,-6.64723 -6.41232,-6.64723 -3.1296,0 -7.12578,3.7708 -7.12578,6.72387 0,1.35472 12.76329,1.28246 13.5381,-0.0765 z m 11.69901,16.96227 c -0.8165,-0.35717 -1.48453,-1.82184 -1.48453,-3.25482 0,-2.01216 0.47325,-2.37282 2.07835,-1.58399 1.14309,0.56178 4.21607,1.05831 6.82885,1.10337 4.24334,0.0731 4.75053,-0.2479 4.75053,-3.00724 0,-2.43982 -0.98194,-3.45767 -4.67178,-4.84253 -8.74443,-3.28193 -11.01126,-7.74009 -6.80141,-13.37617 1.74331,-2.33391 3.3293,-2.90588 7.85181,-2.83176 6.28971,0.1031 8.49187,1.59755 7.30304,4.95613 -0.60247,1.70197 -1.12014,1.87566 -2.17668,0.7303 -0.76242,-0.82654 -3.14985,-1.50279 -5.30539,-1.50279 -3.13562,0 -3.91919,0.51806 -3.91919,2.59119 0,1.90296 1.735,3.42301 6.53196,5.72284 6.07036,2.91029 6.53197,3.44097 6.53197,7.5091 0,6.15529 -2.99209,8.66255 -10.18837,8.53739 -3.21454,-0.0559 -6.51267,-0.39387 -7.32916,-0.75102 z m 37.65469,-1.14716 c -1.96274,-2.56381 -1.97207,-8.87414 -0.0169,-11.4281 1.79674,-2.34695 8.73266,-4.62388 12.00445,-3.94081 1.78239,0.37212 2.31648,-0.2358 2.31648,-2.63665 0,-3.80982 -4.63176,-5.51537 -9.05066,-3.3327 -4.10212,2.02617 -5.20089,1.82179 -5.20089,-0.96747 0,-2.78545 7.35546,-5.3941 12.31273,-4.36677 5.26653,1.09141 6.43074,3.93107 6.87286,16.76375 0.36703,10.65407 0.19113,11.90981 -1.66805,11.90922 -1.14309,-3.5e-4 -2.07836,-0.95949 -2.07836,-2.13141 0,-1.98271 -0.15092,-1.98271 -2.17186,0 -2.80071,2.7477 -11.25293,2.83079 -13.31984,0.13094 z m 12.4378,-3.8858 c 2.72578,-2.95498 2.44823,-8.2767 -0.43167,-8.2767 -4.72834,0 -8.39073,2.42127 -8.39073,5.54724 0,1.6698 0.35631,3.42224 0.79177,3.89432 1.44634,1.56795 6.13745,0.88749 8.03063,-1.16486 z m 31.15196,3.24163 c -8.60376,-7.33674 -5.18155,-23.43327 5.57204,-26.20849 4.46554,-1.15244 11.54866,1.35372 10.6891,3.78203 -0.47542,1.34305 -1.96138,1.61702 -5.73173,1.0568 -6.69747,-0.99518 -10.12439,2.3393 -10.12439,9.85133 0,8.36616 6.45654,12.84586 13.0233,9.03597 1.65662,-0.96114 2.35876,-0.7545 2.93121,0.86267 1.03812,2.93269 -1.32248,4.22074 -7.77783,4.24397 -3.75138,0.0136 -6.45955,-0.81467 -8.5817,-2.62428 z m 52.6607,-11.51833 c 0,-13.30395 0.14397,-14.16229 2.37526,-14.16229 1.30639,0 2.37526,0.65031 2.37526,1.44513 0,0.99136 0.56564,0.93622 1.80137,-0.17556 0.99074,-0.89137 4.02652,-1.6207 6.74617,-1.6207 7.60937,0 9.26689,3.08203 9.26689,17.23104 0,10.58638 -0.17813,11.4447 -2.37524,11.4447 -2.18449,0 -2.37529,-0.85832 -2.37529,-10.68609 0,-11.62544 -0.93536,-13.77607 -5.99159,-13.77607 -5.3752,0 -7.07231,3.50003 -7.07231,14.58556 0,9.01828 -0.20643,9.8766 -2.37526,9.8766 -2.23129,0 -2.37526,-0.85832 -2.37526,-14.16232 z m 62.94433,0 c 0,-13.30395 0.14396,-14.16229 2.37526,-14.16229 2.23131,0 2.37525,0.85834 2.37525,14.16229 0,13.304 -0.14394,14.16232 -2.37525,14.16232 -2.2313,0 -2.37526,-0.85832 -2.37526,-14.16232 z m 15.34783,10.39891 c -2.93885,-3.18595 -3.47154,-4.78158 -3.47154,-10.39891 0,-5.61729 0.53269,-7.21293 3.47154,-10.39886 2.71961,-2.94832 4.53714,-3.76343 8.39147,-3.76343 6.40425,0 8.96869,1.60075 10.57703,6.60236 2.37088,7.37298 2.16836,7.55993 -8.18849,7.55993 -8.70928,0 -9.50103,0.21461 -9.50103,2.57498 0,6.00956 7.58035,9.61888 13.2695,6.31814 1.77962,-1.03251 2.7857,-1.00945 3.78172,0.0867 2.23178,2.45611 -2.5325,5.18252 -9.05617,5.18252 -4.8298,0 -6.38446,-0.63089 -9.27403,-3.7634 z m 14.3429,-15.29131 c 0,-5.73193 -7.98543,-7.54472 -11.21514,-2.54601 -2.8281,4.37719 -2.35984,4.86348 4.68318,4.86348 5.49828,0 6.53196,-0.36677 6.53196,-2.31747 z m 11.87628,4.8924 c 0,-13.30395 0.14396,-14.16229 2.37526,-14.16229 1.3064,0 2.37526,0.53496 2.37526,1.18881 0,0.65384 1.60608,0.32022 3.56906,-0.74138 2.90914,-1.57329 4.35012,-1.65072 7.79325,-0.41887 5.34305,1.91163 6.45213,5.01944 6.45213,18.08001 0,9.35772 -0.19957,10.21604 -2.37527,10.21604 -2.17553,0 -2.37526,-0.85832 -2.37526,-10.20789 0,-11.09665 -1.42498,-14.25427 -6.43272,-14.25427 -4.92705,0 -6.63119,3.74834 -6.63119,14.58556 0,9.01828 -0.20643,9.8766 -2.37526,9.8766 -2.2313,0 -2.37526,-0.85832 -2.37526,-14.16232 z m 33.68154,12.28239 c -5.42278,-4.11763 -6.54235,-14.95019 -2.27489,-22.01079 2.13358,-3.53001 8.96623,-5.9159 13.88668,-4.84908 3.99054,0.86522 4.87759,1.95885 3.8784,4.78162 -0.53913,1.52307 -1.25542,1.71111 -2.89482,0.75993 -5.95836,-3.45692 -11.41221,0.0596 -12.62148,8.13795 -1.17398,7.84266 6.2893,13.60774 12.7578,9.85486 1.81552,-1.05334 2.4764,-0.88646 3.06404,0.77367 0.42237,1.1932 0.0263,2.61312 -0.90832,3.25451 -2.63403,1.80809 -12.1738,1.35781 -14.88741,-0.70267 z m 22.13703,-12.28239 c 0,-13.30395 0.14394,-14.16229 2.37525,-14.16229 2.23131,0 2.37526,0.85834 2.37526,14.16229 0,13.304 -0.14395,14.16232 -2.37526,14.16232 -2.23131,0 -2.37525,-0.85832 -2.37525,-14.16232 z m 13.8418,11.80785 c -4.39871,-5.26916 -0.72029,-14.14643 6.05097,-14.60301 1.7963,-0.12116 4.29417,-0.27854 5.55086,-0.34982 5.1779,-0.29364 2.77249,-7.15486 -2.50838,-7.15486 -1.59594,0 -4.00342,0.6392 -5.34994,1.42042 -1.87773,1.08942 -2.67823,1.01693 -3.43535,-0.31112 -1.30396,-2.28724 0.12854,-3.67507 5.0038,-4.84784 5.8261,-1.4015 11.58797,0.60644 12.95912,4.51609 0.6274,1.78889 1.14072,7.84974 1.14072,13.46857 0,9.35772 -0.19955,10.21604 -2.37526,10.21604 -1.30639,0 -2.37526,-0.59974 -2.37526,-1.33277 0,-0.91872 -0.71368,-0.91872 -2.29717,0 -3.67325,2.13114 -10.18107,1.59337 -12.36411,-1.0217 z m 12.28603,-4.08293 c 3.09863,-3.35915 3.14234,-7.72492 0.0773,-7.72492 -3.60616,0 -8.38382,2.34488 -9.14202,4.48687 -1.99052,5.62332 4.66978,8.00246 9.06468,3.23805 z m -423.53221,-30.1941 c -0.90624,-2.56022 0.4363,-4.56785 3.05462,-4.56785 2.33466,0 3.59449,2.21015 2.75212,4.82807 -0.71437,2.22019 -4.99665,2.0283 -5.80674,-0.26022 z m 299.26198,-0.0579 c -0.4104,-1.15942 -0.19756,-2.70282 0.47298,-3.42974 1.93596,-2.09872 5.62816,-0.68425 5.62816,2.15615 0,3.27491 -5.02168,4.32319 -6.10114,1.27359 z m 97.38557,0 c -0.41042,-1.15942 -0.19757,-2.70282 0.47297,-3.42974 1.93595,-2.09872 5.62819,-0.68425 5.62819,2.15615 0,3.27491 -5.02169,4.32319 -6.10116,1.27359 z m -433.92303,-40.3919 c -15.05343,-5.38365 -23.80702,-20.32679 -22.12529,-37.7697 1.63024,-16.90852 12.23511,-28.39943 27.84167,-30.16778 19.25379,-2.18162 34.61408,11.85459 35.07943,32.05554 0.3515,15.25859 -5.55272,27.44563 -16.13074,33.29587 -5.23625,2.89595 -19.59045,4.40093 -24.66507,2.58607 z m 15.59941,-16.34655 c 6.94642,-3.89417 9.17599,-17.98711 4.50162,-28.45486 -3.11001,-6.96457 -9.13246,-9.38661 -15.81435,-6.36002 -5.46801,2.47678 -7.84189,7.78017 -7.84189,17.51938 0,15.72463 8.41035,23.31871 19.15462,17.2955 z m 44.38354,16.24939 c -1.3064,-0.57965 -3.44412,-2.3411 -4.75053,-3.91435 -2.26136,-2.72324 -2.39164,-4.95267 -2.71711,-46.50129 -0.34184,-43.64089 -0.34184,-43.64089 8.61031,-43.64089 8.95217,0 8.95217,0 8.95217,37.8754 0,20.83149 0.3244,38.79186 0.72087,39.91195 0.42748,1.20765 2.11926,2.03652 4.1567,2.03652 3.36387,0 3.43584,0.14518 3.43584,6.931 0,6.09933 -0.32064,7.02415 -2.67218,7.70729 -3.74699,1.0886 -12.90024,0.85264 -15.73607,-0.40563 z m 38.92388,-1.47781 c -2.86052,-1.53499 -6.1799,-4.71783 -7.7196,-7.40203 -2.54479,-4.43641 -2.72337,-6.25597 -3.08407,-31.42434 -0.38291,-26.71523 -0.38291,-26.71523 8.61029,-26.71523 8.9932,0 8.9932,0 8.9932,22.58944 0,22.55654 0.004,22.59429 3.05935,25.90606 2.58046,2.7974 3.80712,3.20784 7.83632,2.62198 2.62735,-0.38205 6.06052,-2.00183 7.62932,-3.59953 2.7985,-2.85011 2.85233,-3.32597 2.85233,-25.21145 0,-22.3065 0,-22.3065 9.52109,-22.3065 9.52107,0 9.52107,0 9.20412,33.15264 -0.31696,33.15266 -0.31696,33.15266 -8.92727,33.53094 -8.61031,0.3783 -8.61031,0.3783 -8.61031,-4.91972 0,-5.29799 0,-5.29799 -3.87368,-0.84539 -6.41803,7.37726 -16.83718,9.26691 -25.49109,4.62313 z m 74.51835,0.43986 c -2.27316,-1.23812 -5.34616,-4.21973 -6.82887,-6.62581 -2.51039,-4.0738 -2.69584,-5.73439 -2.69584,-24.14029 0,-19.76559 0,-19.76559 -3.56289,-19.76559 -3.56287,0 -3.56287,0 -3.56287,-7.72488 0,-7.72489 0,-7.72489 3.56287,-7.72489 3.22523,0 3.56413,-0.39656 3.57596,-4.18433 0.009,-2.30138 0.34817,-6.38252 0.75771,-9.06921 0.74465,-4.88487 0.74465,-4.88487 8.00342,-4.50619 7.25878,0.3787 7.25878,0.3787 7.60995,9.06922 0.35117,8.69051 0.35117,8.69051 8.01651,8.69051 7.66531,0 7.66531,0 7.66531,7.72489 0,7.72488 0,7.72488 -7.12577,7.72488 -7.12578,0 -7.12578,0 -7.12578,16.57962 0,18.6356 0.52722,19.9507 7.72829,19.27813 4.02946,-0.37636 4.42141,-0.0679 6.59136,5.18634 1.26895,3.07255 2.30717,6.03966 2.30717,6.59356 0,1.9055 -9.55749,5.14912 -15.16631,5.14712 -3.08948,-8.1e-4 -7.47706,-1.01501 -9.75022,-2.25308 z m 89.0408,1.12863 c -9.12997,-3.24536 -15.00168,-8.5636 -19.36763,-17.54204 -3.59409,-7.39117 -3.57458,-24.83033 0.0361,-32.27488 9.92257,-20.45833 36.77795,-24.84303 51.483,-8.40565 14.47457,16.17972 10.35852,45.63957 -7.7974,55.808 -5.16557,2.89306 -19.11681,4.27623 -24.35407,2.41457 z m 17.86959,-17.58861 c 5.14396,-5.04664 6.16591,-22.05212 1.76302,-29.33679 -4.59794,-7.60734 -16.40839,-7.11595 -20.90004,0.86961 -4.85515,8.63181 -2.02406,26.27814 4.83799,30.15563 3.72801,2.10653 11.34796,1.20676 14.29903,-1.68845 z m 116.93396,16.90521 c -7.37015,-1.97452 -13.65772,-5.46432 -13.65772,-7.58046 0,-0.87961 1.38219,-3.80437 3.07151,-6.49948 2.26815,-3.61854 3.58832,-4.65529 5.04741,-3.96385 9.82389,4.65525 15.13719,5.87444 19.46922,4.46741 3.51892,-1.14294 4.47784,-2.09886 4.47784,-4.46379 0,-3.98195 -1.60156,-5.23093 -10.09484,-7.8724 -9.53204,-2.96451 -15.60163,-6.41651 -17.86426,-10.16004 -2.11387,-3.49741 -2.52319,-13.87451 -0.74479,-18.88092 3.01879,-8.49809 14.8887,-13.75087 27.77414,-12.29085 7.52739,0.85293 17.55654,4.93635 17.55654,7.14825 0,0.729 -1.1459,3.88235 -2.54644,7.0075 -2.54648,5.68207 -2.54648,5.68207 -7.42268,3.28142 -6.43027,-3.16571 -15.68671,-3.27592 -17.14407,-0.2041 -1.87219,3.94622 -0.24309,5.37553 9.97965,8.75582 5.49442,1.8168 11.56152,4.73696 13.48243,6.48919 4.49299,4.09843 6.49241,10.69473 5.47378,18.05853 -2.04154,14.75862 -17.67724,21.84634 -36.85772,16.70777 z m -476.55965,-1.40472 c -7.55147,-2.28733 -13.33725,-5.39389 -13.33725,-7.16121 0,-1.12563 5.56818,-13.93649 6.60057,-15.18615 0.20718,-0.25076 3.34662,1.11929 6.97652,3.04455 4.22447,2.24061 9.3568,3.7404 14.25987,4.16706 7.32459,0.63739 7.81891,0.49433 11.28885,-3.26735 1.99585,-2.16369 3.62884,-4.87389 3.62884,-6.02274 0,-3.7199 -5.12614,-7.77452 -15.43919,-12.2119 -17.56433,-7.55741 -23.54731,-13.30409 -24.62307,-23.6506 -1.28438,-12.35308 3.03098,-21.15257 13.22815,-26.97368 6.61524,-3.77633 24.25536,-3.99429 34.29451,-0.42371 3.77662,1.3432 7.09002,2.83409 7.36307,3.3131 0.27309,0.479 -0.63536,4.20189 -2.01878,8.27308 -2.18977,6.44428 -2.83527,7.29154 -4.98782,6.54696 -13.73252,-4.75008 -18.5589,-5.3751 -24.04529,-3.11379 -4.02284,1.65808 -5.10689,3.33495 -5.13073,7.93653 -0.0229,4.458 2.02982,5.88915 18.02387,12.56515 9.50661,3.96813 13.59425,6.40704 16.26511,9.70474 10.2271,12.62737 6.97452,31.42237 -6.97539,40.30726 -4.65794,2.96669 -6.82366,3.43466 -17.22062,3.72095 -7.72296,0.21266 -14.0869,-0.33718 -18.15122,-1.56825 z m 290.29987,1.0687 c -0.43547,-0.47207 -0.79176,-15.5356 -0.79176,-33.47452 0,-32.61621 0,-32.61621 8.90722,-32.61621 8.90722,0 8.90722,0 8.90722,33.47454 0,33.47454 0,33.47454 -8.11546,33.47454 -4.46352,0 -8.47177,-0.38626 -8.90722,-0.85835 z m 104.9072,-32.61619 c 0,-33.47454 0,-33.47454 7.59254,-33.47454 8.16139,0 9.0214,0.71369 9.04743,7.50832 0.0132,3.43527 0.0132,3.43527 2.94747,-0.59989 7.25735,-9.98007 22.0088,-10.6974 31.01714,-1.50829 5.51837,5.62909 6.40161,10.81102 6.40161,37.55801 0,23.99093 0,23.99093 -8.90721,23.99093 -8.90722,0 -8.90722,0 -8.90722,-22.58947 0,-22.26724 -0.0416,-22.63455 -2.91509,-25.74964 -4.2123,-4.56648 -10.45362,-4.31533 -14.9907,0.6032 -3.47153,3.76343 -3.47153,3.76343 -3.47153,21.72629 0,9.87954 -0.33401,19.77336 -0.74226,21.98622 -0.74227,4.0234 -0.74227,4.0234 -8.90721,4.0234 -8.16497,0 -8.16497,0 -8.16497,-33.47454 z M 605.34471,482.50573 c -3.01082,-3.60666 -2.61185,-12.45853 0.674,-14.95354 3.84399,-2.9188 12.24757,-2.60275 15.17492,0.57074 3.10496,3.36604 3.22029,11.6467 0.20339,14.60649 -3.10479,3.04602 -13.44303,2.90196 -16.05231,-0.22369 z M 431.10109,447.12434 c -12.26041,-3.74443 -19.94025,-12.66399 -22.52489,-26.16089 -3.40477,-17.7796 3.90235,-33.55052 18.87062,-40.7284 6.93906,-3.32754 21.00297,-2.67858 28.07258,1.29538 13.39315,7.52853 19.71112,26.03615 14.98629,43.90041 -1.83506,6.93816 -9.77786,16.54684 -16.26779,19.67966 -6.55779,3.16558 -16.52502,4.03312 -23.13681,2.01384 z m 18.30803,-18.78115 c 2.83003,-3.06391 3.4925,-5.04493 4.00596,-11.97945 0.85239,-11.51184 -2.27485,-19.3699 -8.61071,-21.63673 -11.2116,-4.01125 -19.34262,5.34219 -18.05247,20.76646 0.74781,8.94032 3.12522,13.49577 8.37054,16.03903 5.02088,2.43443 10.14975,1.28948 14.28668,-3.18931 z m 42.7939,19.20569 c -1.37946,-0.60424 -3.65082,-2.67342 -5.04741,-4.59822 -2.48209,-3.42077 -2.5393,-4.4964 -2.5393,-47.7441 0,-44.2445 0,-44.2445 8.89054,-44.2445 8.89054,0 8.89054,0 9.20411,40.87755 0.3136,40.87758 0.3136,40.87758 4.17339,41.281 3.78599,0.39573 3.85978,0.52559 3.85978,6.79114 0,5.67214 -0.34126,6.52838 -3.04637,7.64332 -3.67203,1.51349 -12.0329,1.51016 -15.49474,-0.007 z m 49.1933,-0.46399 c -11.43754,-3.48977 -20.2723,-13.57284 -21.84328,-24.92962 -1.21093,-8.75393 0.0824,-21.07589 2.8236,-26.90079 3.22162,-6.84582 10.83096,-14.17153 16.48962,-15.87496 10.81029,-3.25423 22.88818,-1.04251 29.69677,5.43812 6.05902,5.76721 8.63078,12.62999 8.66225,23.11549 0.0263,8.69051 0.0263,8.69051 -20.16363,8.69051 -13.08689,0 -20.18967,0.46749 -20.18967,1.32884 0,3.74309 3.78819,10.31867 6.97323,12.10422 5.45808,3.05978 14.19665,2.56259 21.03167,-1.19657 3.21339,-1.76734 5.91032,-3.21576 5.9932,-3.21873 0.0829,-0.002 1.31745,2.93498 2.74353,6.52873 3.05405,7.69623 2.59423,8.71114 -5.69901,12.57876 -7.45536,3.47687 -19.3462,4.52433 -26.51828,2.336 z m 19.22825,-42.5002 c 0,-0.2484 -0.5924,-2.29379 -1.3164,-4.54532 -1.44033,-4.47907 -6.26644,-7.87789 -11.1861,-7.87789 -3.7683,0 -10.06246,6.38068 -10.06246,10.20084 0,2.51934 0.65245,2.67398 11.28247,2.67398 6.20537,0 11.28249,-0.20322 11.28249,-0.45161 z m 48.69277,42.21684 c -15.23741,-4.54672 -23.49087,-18.11289 -22.2825,-36.62555 1.19735,-18.34402 12.49928,-30.55999 29.4973,-31.88285 8.62855,-0.6715 20.94206,2.3798 22.03224,5.4596 0.34728,0.98104 -0.47564,4.49677 -1.82868,7.81271 -1.98194,4.85719 -2.86578,5.83966 -4.54747,5.05491 -3.94216,-1.8396 -16.23864,-2.04689 -19.24299,-0.32441 -10.14123,5.81428 -10.20985,28.1591 -0.10389,33.82447 4.44022,2.48917 11.97462,2.49859 17.44267,0.0217 2.34499,-1.06217 4.45654,-1.93122 4.69238,-1.93122 0.2358,0 1.75684,2.84118 3.38004,6.31376 3.35651,7.18064 3.03878,7.88294 -4.94833,10.93789 -7.8254,2.9931 -16.86362,3.4954 -24.09077,1.33887 z m 57.22552,0.73532 c -4.5064,-1.1563 -9.06556,-5.35429 -11.89999,-10.95724 -1.59208,-3.14717 -2.03027,-8.80975 -2.36619,-30.5777 -0.41227,-26.71525 -0.41227,-26.71525 8.59873,-26.71525 9.01099,0 9.01099,0 9.01099,23.03206 0,20.7589 0.22408,23.33201 2.27036,26.07152 3.48612,4.66715 11.80243,4.29663 16.65373,-0.74201 3.64087,-3.78144 3.64087,-3.78144 3.64087,-26.07151 0,-22.29006 0,-22.29006 8.90721,-22.29006 8.90721,0 8.90721,0 8.90721,34.11828 0,34.11827 0,34.11827 -8.18464,34.11827 -7.66818,0 -8.23018,-0.19665 -8.90616,-3.11639 -0.39682,-1.71402 -0.39757,-4.0315 -8e-4,-5.14993 1.13248,-3.19935 -0.60108,-2.38681 -3.85682,1.80773 -1.86793,2.40652 -5.24667,4.57051 -9.0461,5.79367 -6.60798,2.12735 -7.84319,2.18841 -13.72754,0.67856 z m 67.9303,-0.6824 c -2.03604,-1.13412 -4.30738,-3.50265 -5.04741,-5.2634 -0.91788,-2.18387 -1.34553,-17.09514 -1.34553,-46.91518 0,-43.71381 0,-43.71381 8.89053,-43.71381 8.89055,0 8.89055,0 9.20414,40.87755 0.31357,40.87758 0.31357,40.87758 4.17338,41.281 3.77622,0.39471 3.85979,0.53943 3.85979,6.68331 0,3.4539 -0.57073,6.66222 -1.26827,7.12958 -2.99573,2.00713 -14.81224,1.95657 -18.46663,-0.0792 z m 39.33078,0.0225 c -9.27861,-3.55631 -13.91397,-13.22156 -11.33003,-23.62439 2.57428,-10.36392 12.02235,-16.52112 27.31263,-17.79936 8.95506,-0.74862 9.55142,-0.98296 9.55142,-3.75334 0,-6.67775 -9.65075,-8.79223 -22.96719,-5.03212 -3.76168,1.06217 -7.274,1.93122 -7.80515,1.93122 -0.53114,0 -1.57625,-3.29562 -2.32245,-7.3236 -1.6023,-8.64926 -1.71844,-8.51212 9.57666,-11.30756 13.91665,-3.44424 27.26629,-2.16119 34.35727,3.30213 5.96857,4.59855 6.72476,8.56091 7.1641,37.53839 0.40501,26.71555 0.40501,26.71555 -7.51712,26.71527 -7.8475,-3e-4 -7.92956,-0.0369 -8.70953,-3.8867 -0.78739,-3.88638 -0.78739,-3.88638 -4.28793,-0.69322 -6.22732,5.68051 -14.69136,7.12654 -23.02268,3.93328 z m 19.61964,-14.17304 c 4.29593,-2.40826 5.91438,-5.55231 5.91438,-11.48935 0,-4.50374 -0.091,-4.59081 -4.78867,-4.59081 -6.80905,0 -12.78323,3.01032 -13.68249,6.89446 -1.12582,4.86282 -0.22076,7.67974 3.0425,9.4696 3.84753,2.11029 5.32201,2.06629 9.51428,-0.28389 z m -494.08777,8.0601 c -0.0125,-8.17354 3.35313,-73.54861 4.27529,-83.04258 0.65653,-6.75928 0.65653,-6.75928 9.82567,-6.75928 9.16912,0 9.16912,0 21.446,28.93656 13.59253,32.03752 10.24421,33.96069 31.88724,-18.31485 4.39761,-10.62171 4.39761,-10.62171 13.38333,-10.62171 9.75871,0 8.6391,-7.07572 14.56604,92.05496 0.23096,3.86245 0.23096,3.86245 -8.257,4.23806 -8.48794,0.37559 -8.48794,0.37559 -9.19183,-7.08116 -0.38714,-4.10122 -1.31046,-17.88537 -2.05184,-30.63144 -0.74141,-12.74608 -1.41497,-23.26558 -1.49686,-23.37673 -0.0817,-0.11116 -4.80175,10.31748 -10.48866,23.17467 -10.33982,23.37675 -10.33982,23.37675 -16.70658,23.75586 -6.36676,0.37908 -6.36676,0.37908 -13.0602,-14.80605 -3.68137,-8.35184 -8.50131,-19.4247 -10.71096,-24.6064 -4.01754,-9.42126 -4.01754,-9.42126 -5.5238,21.24345 -0.82842,16.86559 -1.74928,31.09923 -2.04633,31.63033 -0.29707,0.53107 -3.9824,0.9656 -8.18962,0.9656 -7.6495,0 -7.6495,0 -7.65989,-6.75929 z m 534.01803,1.93124 c -0.40486,-2.65544 -0.74201,-18.00866 -0.74919,-34.11828 -0.0131,-29.29021 -0.0131,-29.29021 8.16547,-29.29021 8.17855,0 8.17855,0 9.00337,5.96286 0.82486,5.96285 0.82486,5.96285 3.05143,1.99371 2.90853,-5.18483 8.0443,-7.95657 14.74271,-7.95657 5.40333,0 5.40333,0 5.28494,7.403 -0.18837,11.77911 -0.66651,12.54434 -7.87746,12.60673 -4.3626,0.0378 -7.19376,0.84443 -9.50102,2.70713 -3.16278,2.55338 -3.31433,3.20635 -4.02112,17.32724 -0.40397,8.07063 -0.80481,17.71555 -0.89072,21.43315 -0.15626,6.75929 -0.15626,6.75929 -8.31427,6.75929 -8.15801,0 -8.15801,0 -8.89414,-4.82805 z"
       id="path1"
       sodipodi:nodetypes="sssssssssssssssssssssssssssssssssssssssscsscsssssssssssssscsssssssssssssscssssssssssssscsssssccsssssssssssssscsscsssssssssssssssssssssssssssssssssssssssssssssssssssscsssssssssssssssssssssssssssssssssssssssssssssssssssssssssssssssssssssssscsssssssssssssssssssssssssssssssssssssssssssssssssssssssssssssssssssssssssssssssssssssssssssssssssssssssssssssssssssssssssssssssssssssssssssssssssssssssssssssssssssssssssssssssssssssssssssssssssssssssssssssssssssssssssssssssssssssssssssssssssssssssssssssssssssssssssssssssssssssssssscssssssssssssssssssssssssssssssssssssssssssssssssssssssssssssssssssssssssssssssssssssssssssssssssssssssssssssssssssssscsssssssccsssssssssscssssssssssssssssssssssssssssssssssscsssssssssssssssssssssssssssssssssssssssssssssssssssssssssssssssssss" />
  </g>
</svg>
