<?xml version="1.0" encoding="UTF-8" standalone="no"?>
<!-- Created with Inkscape (http://www.inkscape.org/) -->

<svg
   version="1.1"
   id="svg1"
   width="1024"
   height="1024"
   viewBox="0 0 1024 1024"
   sodipodi:docname="logo.svg"
   inkscape:version="1.4.2 (f4327f4, 2025-05-13)"
   xmlns:inkscape="http://www.inkscape.org/namespaces/inkscape"
   xmlns:sodipodi="http://sodipodi.sourceforge.net/DTD/sodipodi-0.dtd"
   xmlns="http://www.w3.org/2000/svg"
   xmlns:svg="http://www.w3.org/2000/svg">
  <defs
     id="defs1" />
  <sodipodi:namedview
     id="namedview1"
     pagecolor="#505050"
     bordercolor="#ffffff"
     borderopacity="1"
     inkscape:showpageshadow="0"
     inkscape:pageopacity="0"
     inkscape:pagecheckerboard="1"
     inkscape:deskcolor="#505050"
     inkscape:zoom="0.49121094"
     inkscape:cx="510.98211"
     inkscape:cy="512"
     inkscape:window-width="1366"
     inkscape:window-height="705"
     inkscape:window-x="-8"
     inkscape:window-y="-8"
     inkscape:window-maximized="1"
     inkscape:current-layer="g1" />
  <g
     inkscape:groupmode="layer"
     inkscape:label="Image"
     id="g1">
    <path
       style="fill:#000000"
       d="m 96.999007,669.66344 c -7.234969,-1.88435 -11.140599,-6.22739 -12.136889,-13.49614 -1.65285,-12.05886 7.21943,-58.19831 16.658802,-86.63251 1.73456,-5.225 8.03606,-22.55 14.00335,-38.5 15.86982,-42.41856 19.72079,-57.24319 20.6516,-79.5 1.29247,-30.90456 -6.01748,-51.72288 -34.02512,-96.90161 -26.618163,-42.9374 -37.211813,-69.87505 -43.297873,-110.09839 -2.07509,-13.71443 -2.39714,-44.21316 -0.53475,-50.64225 1.68635,-5.82138 7.64751,-11.00526 13.69894,-11.91273 9.679221,-1.45149 18.677711,1.31523 21.51393,6.61476 0.56536,1.05638 1.69974,9.01259 2.52083,17.68046 2.77256,29.2683 6.152773,46.46215 13.616053,69.25976 7.72918,23.60983 14.62457,37.81146 37.87175,78 13.26646,22.93438 18.62579,34.02227 22.71746,47 5.00576,15.87697 5.74565,21.65398 5.69936,44.5 -0.0602,29.72542 -3.4172,46.14514 -17.03361,83.31557 -22.39623,61.13777 -27.5819,80.18871 -31.82444,116.91551 -1.73783,15.04404 -3.45679,18.39865 -11.25784,21.97009 -5.73525,2.62569 -13.99481,3.68982 -18.841553,2.42748 z m 135.529743,-0.71212 c -8.17509,-3.54589 -9.51703,-6.47094 -11.4625,-24.98514 -3.24565,-30.8876 -8.08593,-58.12395 -16.04917,-90.30916 -17.47295,-70.62073 -15.34798,-117.24419 7.45745,-163.62223 20.38303,-41.45176 59.56676,-89.99942 107.94976,-133.74708 51.23264,-46.32427 89.15406,-67.48113 130.57471,-72.84935 11.1597,-1.44633 30.08723,-0.61652 37.5,1.64405 18.39411,5.60938 33.86724,18.12019 47.86447,38.70085 3.2295,4.74847 3.2295,4.74847 8.3348,-2 4.54367,-6.00609 11.17878,-13.88614 20.30073,-24.10971 4.95151,-5.54949 17.76738,-15.81428 26.91466,-21.55712 15.43414,-9.68985 31.86705,-14.41534 53.23413,-15.30814 39.41296,-1.64682 75.73963,12.6741 102.41288,40.37383 4.15892,4.31897 8.25435,8.86954 9.10095,10.11237 1.53927,2.25971 1.53927,2.25971 6.22009,0.18916 7.18625,-3.17882 17.1625,-3.68597 22.86729,-1.16247 6.72158,2.97327 9.0056,7.83624 9.5519,20.3372 0.42056,9.62359 0.42056,9.62359 7.10613,10.10194 9.53449,0.6822 18.30919,5.08159 25.39039,12.73005 9.0739,9.80093 13.3889,21.21227 14.3859,38.04442 0.5093,8.60016 -0.9488,28.91971 -2.3345,32.53065 -0.3065,0.79887 0.052,1.62011 0.7964,1.82498 16.417,4.51723 25.1927,9.69266 35.2765,20.80416 6.8226,7.51788 13.4312,20.48085 16.7421,32.84021 1.8639,6.95743 2.2824,11.13144 2.3061,23 0.017,8.3848 -0.5518,17.45216 -1.3482,21.5 -2.0336,10.33637 -8.3744,29.10435 -12.8906,38.15489 -3.9597,7.93538 -3.9597,7.93538 2.6757,13.48552 16.1714,13.52632 22.4071,31.87204 19.1567,56.35959 -1.3042,9.82588 -6.1175,25.62065 -8.9446,29.35172 -1.782,2.35172 -1.782,2.35172 -17.4915,-4.76197 -8.6402,-3.91252 -20.6337,-9.5833 -26.6523,-12.60171 -6.0185,-3.01842 -11.4649,-5.48804 -12.1031,-5.48804 -1.7443,0 -0.2257,13.68223 2.0253,18.24692 1.8477,3.74692 1.8477,3.74692 -1.627,5.89443 -4.0199,2.48439 -4.0605,2.45069 -7.3996,-6.14135 -2.9562,-7.60671 -3.5293,-18.76885 -1.3862,-27 2.9086,-11.17175 7.7994,-19.93314 20.8692,-37.38575 6.9549,-9.28716 12.6453,-17.41478 12.6453,-18.06139 0,-0.64661 -3.8206,-3.30308 -8.4903,-5.90327 -38.5137,-21.44565 -45.6042,-41.58095 -34.3608,-97.57672 1.8257,-9.09225 2.7089,-15.62026 2.1391,-15.81018 -0.5337,-0.17792 -4.6399,-2.58167 -9.1247,-5.34167 -9.9773,-6.14006 -19.05962,-14.40549 -24.28579,-22.10136 -2.16104,-3.18228 -7.68713,-9.50604 -12.28021,-14.05281 -14.70193,-14.55372 -17.67744,-23.24638 -18.52492,-54.11884 -0.5724,-20.85199 -0.5724,-20.85199 -12.0724,-12.41421 -28.21178,20.69954 -66.57507,40.72883 -92.26423,48.17071 -18.50292,5.3601 -40.36702,7.60958 -55.24285,5.68365 -23.25709,-3.01104 -36.92157,-11.74987 -52.83694,-33.79074 -3.75669,-5.20258 -3.75669,-5.20258 -13.95634,5.02879 -24.6582,24.73489 -48.46213,36.93771 -74.87065,38.38163 -18.85367,1.03085 -37.71307,-4.65859 -47.33403,-14.27955 -3.40792,-3.40791 -4.28626,-5.4266 -9.54118,-21.92829 -4.47656,-14.05748 -14.32788,-40.49551 -15.09032,-40.49796 -0.3501,-0.001 -4.8501,3.211 -10,7.13804 -32.86988,25.06487 -77.63003,72.5607 -103.52372,109.85097 -31.58282,45.48334 -42.60632,79.49503 -41.00272,126.50895 0.8183,23.99054 3.21154,38.23743 13.24149,78.82618 10.13995,41.03391 15.60933,73.3243 15.80971,93.33821 0.1243,12.41456 -0.6967,14.53832 -7.37805,19.08561 -3.98062,2.70919 -13.50029,3.04348 -18.98042,0.66653 z M 890.87742,544.07927 c 2.9704,-11.82528 4.9139,-10.28588 -22.1284,-17.52789 -13.0625,-3.49819 -24.2358,-6.52668 -24.8294,-6.72999 -1.2155,-0.41626 -5.0728,7.39459 -4.1215,8.3459 0.9221,0.92204 47.028,22.17547 48.3293,22.27831 0.6206,0.0491 1.8581,-2.81579 2.75,-6.36633 z m 3.3611,-37.13828 c -0.1919,-0.19195 -8.1936,-2.43062 -17.7814,-4.97483 -17.4324,-4.62583 -17.4324,-4.62583 -20.2916,-1.2786 -3.7945,4.44219 -8.0584,10.79345 -7.5629,11.26525 0.3655,0.34793 38.8588,9.02441 43.3964,9.78163 1.8287,0.30517 2.0252,-0.29917 2.2942,-7.05534 0.1619,-4.06401 0.1373,-7.54616 -0.055,-7.73811 z m -5.8349,-12.58434 c -1.4426,-2.6956 -9.3285,-10.60742 -13.5278,-13.57232 -3.1232,-2.20511 -3.1232,-2.20511 -6.8226,3.3667 -2.0347,3.06449 -3.4562,5.81516 -3.1587,6.1126 0.4822,0.48221 21.938,6.06009 23.8897,6.21061 0.4318,0.0333 0.2606,-0.91961 -0.3806,-2.11759 z m -21.7582,-38.80087 c 4.0444,-1.63846 8.0873,-3.87192 8.9841,-4.96325 1.4951,-1.81946 6.4408,-17.89654 5.6935,-18.5082 -0.5335,-0.43677 -36.9519,15.05065 -37.1455,15.79665 -0.15,0.57836 13.8423,10.65381 14.7955,10.65381 0.1753,0 3.6279,-1.34055 7.6724,-2.97901 z m -8.1464,-25.33894 c 18.3952,-7.89873 24.4374,-10.77272 25.2132,-11.99274 0.4159,-0.65412 0.763,-5.973 0.7715,-11.81973 0.015,-10.63041 0.015,-10.63041 -14.7347,-4.44935 -8.1125,3.39959 -21.05,8.60385 -28.75,11.56502 -7.7,2.96117 -14.1542,5.49251 -14.3425,5.6252 -0.8887,0.62592 3.0901,11.40586 5.7615,15.61006 2.9995,4.72052 2.9995,4.72052 9.2903,2.34532 3.4598,-1.30635 11.0157,-4.40406 16.7907,-6.88378 z m -6.8983,-32.07576 c 34.0111,-15.25744 31.0684,-13.64773 30.3586,-16.60629 -0.5763,-2.40183 -5.505,-14 -5.9494,-14 -0.1188,0 -4.8948,2.19254 -10.6134,4.87231 -5.7187,2.67977 -16.5346,7.23703 -24.0356,10.12723 -13.638,5.25492 -13.638,5.25492 -14.2115,9.87769 -1.3656,11.00698 -1.8756,17.12277 -1.4279,17.12277 0.2645,0 11.9101,-5.12717 25.8792,-11.39371 z m 0.1528,-31.11771 c 1.4872,-1.00293 0.4205,-1.53144 -7,-3.46807 -4.815,-1.25665 -9.5104,-2.67423 -10.4341,-3.15018 -1.4212,-0.73218 -1.8387,-0.0577 -2.7132,4.38215 -2.7623,14.02436 -3.5896,13.19902 8.0426,8.024 5.6926,-2.53256 11.1397,-5.13711 12.1047,-5.7879 z m 13.6698,-13.13091 c -4.023,-4.38483 -13.7713,-10.19304 -21.0327,-12.53174 -3.7653,-1.21269 -7.0186,-2.00713 -7.2296,-1.76541 -0.2111,0.24171 -0.6787,2.36481 -1.0392,4.718 -0.6556,4.27851 -0.6556,4.27851 4.1108,6.32202 6.5343,2.80147 16.1236,4.94377 25.6907,5.73942 1.7511,0.14564 1.7062,-0.0777 -0.5,-2.48229 z m -39.0181,-14.03064 c 0.8445,-2.94459 0.8445,-2.94459 -8.5309,-5.9108 -5.1564,-1.63141 -9.3753,-2.70993 -9.3753,-2.3967 0,1.45542 15.9048,12.37949 16.7808,11.52578 0.1545,-0.15053 0.6609,-1.59875 1.1254,-3.21828 z m 4.4655,-28.16714 c 0.6901,-8.3401 0.6901,-8.3401 -2.0908,-6.32539 -4.0504,2.93443 -15.8932,15.15541 -14.752,15.22315 0.5341,0.0317 4.1211,0.88116 7.9711,1.88767 8.2593,2.15927 7.7494,2.77923 8.8717,-10.78543 z m -12.8745,-7.15989 c 12.5481,-11.5 12.5481,-11.5 11.9506,-16.5 -0.7556,-6.32257 -3.4848,-16.5 -4.4246,-16.5 -0.3923,0 -1.5705,0.94888 -2.6182,2.10862 -1.5009,1.6613 -12.8406,11.5642 -29.82162,26.04305 -0.55063,0.46949 -0.42044,2.99867 0.32608,6.33443 1.15474,5.15992 1.57345,5.72495 5.9166,7.98409 2.57066,1.33716 4.99994,2.34088 5.39844,2.2305 0.3985,-0.11038 6.3712,-5.37569 13.2727,-11.70069 z m -39.04795,-36.67853 c 0.69866,-3.82147 0.69866,-3.82147 -4.45575,1.17853 -5.01985,4.86947 -5.13895,5.11688 -4.56198,9.47704 0.32584,2.46237 2.02508,7.41237 3.77608,11 3.18364,6.52296 3.18364,6.52296 3.86331,-5.65557 0.37382,-6.69819 0.99407,-13.89819 1.37834,-16 z m -315.68013,22.68208 c 4.54803,-1.09034 10.132,-2.93279 12.40883,-4.09434 4.13968,-2.11191 4.13968,-2.11191 3.4827,-31.26056 -0.36134,-16.03176 -0.65781,-34.43615 -0.65883,-40.89865 -0.002,-11.75 -0.002,-11.75 -6.63251,-11.75 -6.99536,0 -26.43392,2.71446 -27.49065,3.83888 -0.34172,0.36362 0.1845,6.73612 1.16938,14.16112 1.76269,13.28893 6.95254,65.35805 6.95214,69.75 -2.4e-4,2.73439 0.3832,2.74342 10.76894,0.25355 z m -24.30276,-2.25355 c -0.46725,-3.72314 -1.79321,-21.96962 -4.0509,-55.74417 -0.86376,-12.92179 -1.68096,-23.60465 -1.816,-23.73968 -0.49326,-0.49327 -19.31956,7.90558 -27.09948,12.0897 -5.65082,3.03907 -7.91442,4.79005 -7.70857,5.96285 0.16029,0.91319 4.33178,13.70257 9.26998,28.42083 7.0961,21.14987 9.57889,27.36098 11.842,29.62468 3.14896,3.14977 11.79682,6.55206 16.78372,6.60314 3.01785,0.0309 3.16547,-0.13997 2.77925,-3.21735 z m 379.53364,-27.4138 c 0,-3.67402 -14.5036,-11.3362 -21.45808,-11.3362 -2.881,0 -3.47051,0.40809 -3.97255,2.75 -1.42346,6.64019 -2.50999,18.51204 -2.53851,27.7366 -0.0309,9.98661 -0.0309,9.98661 13.96914,-3.9866 7.7,-7.68526 14,-14.50897 14,-15.1638 z m -215.39131,11.9138 c -0.35709,-4.8125 -1.53812,-24.46048 -2.6245,-43.66218 -1.08639,-19.2017 -2.13381,-35.07075 -2.32761,-35.26455 -0.78401,-0.78402 -23.82684,24.00343 -33.36064,35.88644 -15.3393,19.11906 -14.51551,16.3063 -7.4819,25.54603 7.65058,10.05021 15.28545,16.99986 22.60905,20.5799 5.80833,2.83932 15.55021,5.43559 20.95587,5.58486 2.87899,0.0795 2.87899,0.0795 2.22973,-8.6705 z m 29.4569,6.17807 c 11.09553,-2.10479 23.93439,-6.23448 23.93439,-7.69863 0,-0.65096 -2.90514,-20.54388 -6.45587,-44.2065 -3.55072,-23.66262 -6.7587,-45.38544 -7.12883,-48.27294 -0.78915,-6.15645 -0.68324,-6.1284 -11.97696,-3.17185 -8.49962,2.22509 -21.43963,8.44008 -21.43636,10.29572 10e-4,0.61937 0.6602,7.42613 1.46468,15.12613 1.30632,12.50324 4.26582,46.83331 6.09916,70.75 0.67073,8.75 0.67073,8.75 3.94199,8.75 1.79919,0 7.0002,-0.70737 11.5578,-1.57193 z M 513.5724,259.61802 c 5.81537,-5.82077 11.81577,-12.2504 13.33422,-14.28804 2.76082,-3.70481 2.76082,-3.70481 -3.81677,-13.58513 -8.2617,-12.41005 -17.42917,-21.34992 -25.7985,-25.15801 -3.46079,-1.57468 -6.45309,-2.70734 -6.64954,-2.51703 -0.37092,0.35933 1.39247,44.30726 2.49458,62.17115 0.62968,10.20617 0.62968,10.20617 5.24614,7.08323 2.53906,-1.71761 9.3745,-7.88539 15.18987,-13.70617 z m 167.03682,1.59956 c 11.20578,-5.73481 27.58699,-15.38385 28.42833,-16.74517 0.28491,-0.46098 -1.79643,-5.92303 -4.6252,-12.13789 -2.82876,-6.21485 -6.61263,-14.67473 -8.40859,-18.79973 -6.24961,-14.35423 -16.49218,-36.33186 -18.01653,-38.6583 -1.47327,-2.2485 -2.03094,-2.3417 -14.01128,-2.3417 -13.88352,0 -13.32688,-0.37284 -10.98208,7.35593 2.59601,8.55677 12.8754,64.21148 15.03344,81.39407 0.36265,2.8875 1.00424,5.25 1.42575,5.25 0.42151,0 5.44178,-2.39274 11.15616,-5.31721 z m 95.27705,-5.62204 c 6.35301,-7.52829 6.77848,-8.3564 8.21977,-15.99808 1.89423,-10.04318 1.59109,-14.41384 -1.03427,-14.91194 -1.05997,-0.2011 -5.03898,1.13973 -8.84225,2.97963 -6.90173,3.33885 -6.9139,3.35203 -6.33378,6.85746 0.31969,1.9317 0.5862,9.24968 0.59225,16.26218 0.006,7.0125 0.16569,12.75 0.35474,12.75 0.18906,0 3.35865,-3.57266 7.04354,-7.93925 z m -29.88871,-35.3936 c 1.39128,-0.46376 -9.57454,-13.65427 -16.92117,-20.35403 -7.60461,-6.93503 -18.39632,-14.64499 -25.57739,-18.27334 -10.71634,-5.41459 -10.6165,-5.63935 -3.83739,8.63923 5.49718,11.57849 15.56991,33.95839 19.27414,42.82385 1.45584,3.48431 1.45584,3.48431 13.75825,-4.50884 6.76633,-4.39624 12.75293,-8.14333 13.30356,-8.32687 z M 303.999,610.05118 c -2.2,-0.81745 -4.12833,-1.49305 -4.28518,-1.50133 -0.15685,-0.008 0.16889,-0.86352 0.72388,-1.90052 0.95274,-1.78021 1.24952,-1.799 5.3162,-0.33663 5.4792,1.97031 9.49138,1.08118 10.33772,-2.2909 0.96388,-3.8404 -0.049,-5.14572 -5.36233,-6.91052 -8.04733,-2.67289 -10.91717,-7.01699 -8.60911,-13.03169 1.48363,-3.86626 9.08174,-5.59013 15.21513,-3.45202 2.68137,0.93473 2.98614,1.37046 2.10723,3.01271 -0.8091,1.51182 -1.42975,1.70466 -2.91979,0.90722 -2.80564,-1.50153 -8.601,-1.22701 -10.01297,0.4743 -2.53518,3.0547 -0.40604,6.10089 5.86153,8.38616 7.01554,2.558 8.13541,3.71225 8.31817,8.5736 0.27184,7.23086 -8.08018,11.26895 -16.69048,8.06962 z m 29,0.7738 c -4.78968,-1.18943 -8.81882,-7.77257 -7.89974,-12.90727 1.70155,-9.50628 12.49201,-13.07114 19.00088,-6.27736 2.2911,2.3914 2.78348,3.79562 2.78348,7.93835 0,4.25409 -0.45536,5.47668 -2.94231,7.89978 -2.99279,2.91595 -7.33205,4.24303 -10.94231,3.3465 z m 7.67126,-4.94518 c 1.25741,-1.13793 1.82874,-3.06596 1.82874,-6.17126 0,-5.57739 -2.09592,-8.17375 -6.59828,-8.17375 -4.04259,0 -6.40172,2.94812 -6.40172,8 0,4.95716 2.36884,8 6.22796,8 1.71301,0 3.93749,-0.74474 4.9433,-1.65499 z m 13.27229,3.95568 c -1.12914,-1.12913 -1.44355,-4.69508 -1.44355,-16.37212 0,-14.2619 0.0893,-14.92857 2,-14.92857 1.90805,0 2,0.66667 2,14.5 0,13.83333 0.0919,14.5 2,14.5 1.1,0 2,0.62254 2,1.38342 0,1.98283 -4.81698,2.65674 -6.55645,0.91727 z m 16.31737,0.92995 c -4.48194,-0.59132 -5.76092,-3.57804 -5.76092,-13.45315 0,-8.11082 0.1519,-8.77749 2,-8.77749 1.83936,0 2,0.66667 2,8.3 0,5.12222 0.45944,8.75944 1.2,9.5 1.65561,1.65561 4.92419,1.50174 7.57749,-0.3567 1.9795,-1.38649 2.22251,-2.42525 2.22251,-9.5 0,-7.27663 0.16786,-7.9433 2,-7.9433 1.87879,0 2,0.66667 2,11 0,10.33333 -0.12121,11 -2,11 -1.1,0 -2,-0.42704 -2,-0.94897 0,-0.53792 -1.40778,-0.4097 -3.25,0.296 -1.7875,0.68474 -4.48259,1.08236 -5.98908,0.88361 z m 59.56597,0.0339 c -6.10053,-1.07664 -9.87771,-10.19421 -6.85878,-16.55612 2.01647,-4.2494 5.4789,-6.17543 10.72547,-5.96621 7.07185,0.28201 11.76054,7.00072 9.84635,14.10946 -1.67908,6.23562 -7.12358,9.57579 -13.71304,8.41287 z m 8.11641,-5.48708 c 2.05788,-2.93804 2.00286,-9.62701 -0.0983,-11.94875 -2.18303,-2.41222 -7.54065,-2.37503 -9.75127,0.0677 -2.32826,2.5727 -2.36135,9.5979 -0.0572,12.14396 2.49329,2.75507 7.89326,2.61177 9.90675,-0.26289 z m 153.76861,5.06912 c -4.7417,-1.33181 -7.43502,-6.04837 -6.9134,-12.10674 0.2303,-2.6748 1.19653,-5.6294 2.20558,-6.74439 3.92563,-4.33777 13.05136,-4.35415 16.96426,-0.0305 0.9725,1.0746 1.99008,3.9225 2.26129,6.32868 1.04086,9.23453 -5.67074,15.03779 -14.51773,12.5529 z m 8.21516,-4.41654 c 4.93135,-4.93131 2.09598,-14.43004 -4.30737,-14.43004 -4.79433,0 -6.6197,2.20599 -6.6197,8 0,3.9549 0.4537,5.49297 1.94113,6.58061 2.56973,1.87903 7.03111,1.80429 8.98594,-0.15054 z m 47.16279,4.82528 c -6.96958,-1.00369 -10.58986,-6.29874 -10.58986,-15.4888 0,-6.57527 2.48797,-11.48636 7.06166,-13.93925 3.87854,-2.08009 6.81771,-2.26618 12.19708,-0.77228 3.32209,0.92258 3.63667,1.27191 2.70801,3.00714 -0.83028,1.5514 -1.44772,1.75083 -2.943,0.95058 -2.44265,-1.30727 -7.6211,-1.29857 -10.07914,0.0169 -4.74879,2.54148 -6.36666,11.63557 -3.19306,17.94821 2.17098,4.3183 6.58784,5.86737 11.99655,4.20739 2.81862,-0.86506 3.85016,-0.84321 4.44575,0.0942 1.30264,2.05021 0.93342,2.53607 -2.44385,3.21579 -5.69199,1.1456 -6.19426,1.18728 -9.16014,0.76015 z m -254.34893,-2.50532 c -6.39126,-6.82275 -4.73103,-15.91451 3.54564,-19.41671 4.08992,-1.73062 11.49017,-0.21804 10.57691,2.16188 -0.41432,1.07969 -1.62656,1.29344 -4.83861,0.85318 -3.51874,-0.48229 -4.66514,-0.20808 -6.40533,1.53211 -2.83252,2.83252 -2.89672,9.34236 -0.11954,12.11954 2.09212,2.09212 7.43645,2.72086 8.5,1 1.023,-1.65525 2.5,-1.12766 2.5,0.89301 0,3.87792 -10.32668,4.52112 -13.75907,0.85699 z m 19.75907,-8.75 c 0,-10.33333 0.12121,-11 2,-11 1.87879,0 2,0.66667 2,11 0,10.33333 -0.12121,11 -2,11 -1.87879,0 -2,-0.66667 -2,-11 z m 37,0 c 0,-8.82353 0.2803,-11 1.41667,-11 0.77916,0 1.57285,0.46855 1.76374,1.04122 0.21897,0.65692 1.51484,0.45865 3.51106,-0.53719 3.68919,-1.84041 7.34897,-1.22117 9.98493,1.68945 1.40661,1.55317 1.90352,4.04792 2.1731,10.91006 0.34452,8.7699 0.31607,8.89647 -2,8.89728 -2.26948,8e-4 -2.34373,-0.25099 -2.18022,-7.39273 0.23581,-10.29913 -2.67142,-13.81805 -8.73502,-10.57291 -1.67848,0.8983 -1.93426,2.15454 -1.93426,9.5 0,7.79815 -0.15751,8.46482 -2,8.46482 -1.87879,0 -2,-0.66667 -2,-11 z m 26.92308,8.07692 c -2.33762,-2.33761 -2.92013,-3.78971 -2.90834,-7.25 0.0196,-5.76487 1.76454,-8.96575 6.02698,-11.056 2.80484,-1.37546 4.2638,-1.52535 7.13387,-0.73288 4.41879,1.22009 5.75012,2.72932 6.50364,7.37273 0.58245,3.58923 0.58245,3.58923 -7.54839,3.58923 -7.46417,0 -8.13084,0.16398 -8.13084,2 0,1.1 0.94409,2.94409 2.09797,4.09797 2.10885,2.10885 4.96066,2.21318 10.65203,0.38967 1.68873,-0.54107 2.25,-0.32641 2.25,0.86054 0,2.28461 -3.18652,3.65182 -8.51118,3.65182 -3.79803,0 -5.17446,-0.53179 -7.56574,-2.92308 z m 12.4762,-10.91395 c 1.07319,-1.73646 -2.51016,-5.16297 -5.39928,-5.16297 -2.63515,0 -6,2.92882 -6,5.22251 0,1.05221 10.74687,0.99608 11.39928,-0.0595 z m 9.85072,13.17475 c -0.6875,-0.27741 -1.25,-1.41503 -1.25,-2.52804 0,-1.56286 0.39849,-1.843 1.75,-1.2303 0.9625,0.43635 3.55,0.82199 5.75,0.85699 3.57294,0.0568 4,-0.19254 4,-2.33574 0,-1.89505 -0.82681,-2.68562 -3.93369,-3.76125 -7.36293,-2.54911 -9.27165,-6.01181 -5.72688,-10.38941 1.46788,-1.81275 2.8033,-2.25702 6.61132,-2.19945 5.29603,0.0801 7.15028,1.24083 6.14925,3.84948 -0.50728,1.32194 -0.94316,1.45684 -1.83278,0.56722 -0.64197,-0.64197 -2.65222,-1.16722 -4.46722,-1.16722 -2.64023,0 -3.3,0.40238 -3.3,2.01261 0,1.47803 1.46089,2.65868 5.5,4.44497 5.11132,2.26047 5.5,2.67264 5.5,5.8324 0,4.78088 -2.51938,6.72828 -8.57874,6.63107 -2.70669,-0.0434 -5.48376,-0.30592 -6.17126,-0.58333 z m 31.70578,-0.891 c -1.65267,-1.99134 -1.66051,-6.89264 -0.0142,-8.87632 1.51288,-1.8229 7.35302,-3.59141 10.10791,-3.06087 1.50081,0.28903 1.95052,-0.18314 1.95052,-2.0479 0,-2.95913 -3.90002,-4.28385 -7.62079,-2.58855 -3.45403,1.57376 -4.37921,1.41501 -4.37921,-0.75144 0,-2.16348 6.1934,-4.18965 10.36748,-3.39172 4.43449,0.8477 5.41477,3.0533 5.78703,13.02058 0.30906,8.27511 0.16096,9.25046 -1.40451,9.25 -0.9625,-2.7e-4 -1.75,-0.74524 -1.75,-1.65549 0,-1.53998 -0.12708,-1.53998 -1.82874,0 -2.35823,2.13417 -9.47513,2.19871 -11.21548,0.10171 z m 10.47279,-3.01815 c 2.29515,-2.29515 2.06145,-6.42857 -0.36347,-6.42857 -3.98133,0 -7.0651,1.88061 -7.0651,4.30858 0,1.29695 0.3,2.65809 0.66667,3.02475 1.21784,1.21785 5.16781,0.68933 6.7619,-0.90476 z m 26.23039,2.51781 c -7.24448,-5.69851 -4.36295,-18.20085 4.69173,-20.35639 3.76004,-0.89512 9.72413,1.05145 9.00037,2.93754 -0.4003,1.04316 -1.65151,1.25596 -4.82619,0.82082 -5.63937,-0.77296 -8.52487,1.81697 -8.52487,7.65165 0,6.49805 5.43649,9.9775 10.96578,7.01831 1.39492,-0.74653 1.98612,-0.58603 2.46813,0.67005 0.87409,2.27785 -1.11355,3.27829 -6.54905,3.29633 -3.15872,0.0105 -5.43903,-0.63276 -7.2259,-2.03831 z m 44.34104,-8.94638 c 0,-10.33333 0.12121,-11 2,-11 1.1,0 2,0.5051 2,1.12244 0,0.77 0.47628,0.72718 1.51677,-0.13636 0.83423,-0.69234 3.39039,-1.25881 5.68037,-1.25881 6.4072,0 7.80286,2.39384 7.80286,13.38351 0,8.22255 -0.14999,8.88922 -2,8.88922 -1.83936,0 -2,-0.66667 -2,-8.3 0,-9.02959 -0.78759,-10.7 -5.04501,-10.7 -4.526,0 -5.95499,2.7185 -5.95499,11.32874 0,7.00459 -0.17381,7.67126 -2,7.67126 -1.87879,0 -2,-0.66667 -2,-11 z m 53,0 c 0,-10.33333 0.12121,-11 2,-11 1.87879,0 2,0.66667 2,11 0,10.33333 -0.12121,11 -2,11 -1.87879,0 -2,-0.66667 -2,-11 z m 12.92308,8.07692 c -2.47455,-2.47455 -2.92308,-3.7139 -2.92308,-8.07692 0,-4.36302 0.44853,-5.60237 2.92308,-8.07692 2.28996,-2.28997 3.82034,-2.92308 7.06574,-2.92308 5.39248,0 7.55175,1.24332 8.906,5.12811 1.99632,5.72667 1.8258,5.87189 -6.89482,5.87189 -7.33333,0 -8,0.16667 -8,2 0,4.66768 6.38276,7.47107 11.1731,4.90736 1.49848,-0.80196 2.3456,-0.78405 3.18426,0.0673 1.87919,1.90768 -2.13239,4.02532 -7.62541,4.02532 -4.06676,0 -5.37581,-0.49002 -7.80887,-2.92308 z M 689.499,595.73479 c 0,-4.45204 -6.72384,-5.86006 -9.4433,-1.97749 -2.3813,3.39979 -1.98702,3.77749 3.9433,3.77749 4.62963,0 5.5,-0.28485 5.5,-1.8 z m 10,3.8 c 0,-10.33333 0.12121,-11 2,-11 1.1,0 2,0.41551 2,0.92336 0,0.50784 1.35234,0.24871 3.0052,-0.57584 2.44953,-1.22199 3.66286,-1.28214 6.56202,-0.32534 4.49893,1.48478 5.43278,3.89865 5.43278,14.04292 0,7.26823 -0.16803,7.9349 -2,7.9349 -1.83183,0 -2,-0.66667 -2,-7.92857 0,-8.61888 -1.19986,-11.07143 -5.41644,-11.07143 -4.14864,0 -5.58356,2.91137 -5.58356,11.32874 0,7.00459 -0.17381,7.67126 -2,7.67126 -1.87879,0 -2,-0.66667 -2,-11 z m 28.36032,9.53983 c -4.56606,-3.1982 -5.50876,-11.61195 -1.91548,-17.09599 1.79649,-2.74179 7.54968,-4.59494 11.69276,-3.76632 3.3601,0.67202 4.10701,1.52145 3.26568,3.71392 -0.45395,1.18298 -1.05708,1.32903 -2.4375,0.59025 -5.01701,-2.68502 -9.60922,0.0463 -10.62744,6.32082 -0.98851,6.09147 5.29569,10.56927 10.74224,7.65437 1.52869,-0.81814 2.08517,-0.68852 2.57997,0.60092 0.35564,0.92677 0.022,2.02963 -0.76483,2.52781 -2.21788,1.40436 -10.2505,1.05462 -12.5354,-0.54578 z m 18.63968,-9.53983 c 0,-10.33333 0.12121,-11 2,-11 1.87879,0 2,0.66667 2,11 0,10.33333 -0.12121,11 -2,11 -1.87879,0 -2,-0.66667 -2,-11 z m 11.65499,9.17126 c -3.70377,-4.09262 -0.60649,-10.98768 5.09501,-11.34231 1.5125,-0.0941 3.61575,-0.21634 4.6739,-0.2717 4.35987,-0.22807 2.33447,-5.55725 -2.11209,-5.55725 -1.34381,0 -3.37094,0.49646 -4.50473,1.10325 -1.58107,0.84616 -2.25511,0.78985 -2.89261,-0.24165 -1.09795,-1.77652 0.10823,-2.85447 4.21327,-3.76537 4.90567,-1.08855 9.75724,0.47103 10.91177,3.5077 0.52827,1.38945 0.96049,6.09697 0.96049,10.46117 0,7.26823 -0.16803,7.9349 -2,7.9349 -1.1,0 -2,-0.46583 -2,-1.03518 0,-0.71358 -0.60093,-0.71358 -1.93426,0 -3.09292,1.65528 -8.57259,1.23759 -10.41075,-0.79356 z m 10.34501,-3.17126 c 2.60909,-2.60909 2.64589,-6 0.0651,-6 -3.03644,0 -7.05928,1.82127 -7.69771,3.48499 -1.67604,4.36768 3.93204,6.21558 7.63261,2.51501 z m -356.62,-23.45211 c -0.76307,-1.98855 0.36736,-3.54789 2.57203,-3.54789 1.96581,0 3.02661,1.71664 2.31733,3.75 -0.60152,1.72445 -4.20726,1.5754 -4.88936,-0.20211 z m 251.98275,-0.045 c -0.34557,-0.90055 -0.16636,-2.09931 0.39825,-2.66392 1.6301,-1.6301 4.739,-0.53146 4.739,1.6747 0,2.54367 -4.22832,3.35787 -5.13725,0.98922 z m 82,0 c -0.34557,-0.90055 -0.16636,-2.09931 0.39825,-2.66392 1.6301,-1.6301 4.739,-0.53146 4.739,1.6747 0,2.54367 -4.22832,3.35787 -5.13725,0.98922 z M 380.49253,550.6649 c -12.67519,-4.18153 -20.04584,-15.78801 -18.62979,-29.33609 1.37267,-13.13302 10.30212,-22.05812 23.44305,-23.43161 16.21198,-1.69449 29.14554,9.20756 29.53738,24.89785 0.29597,11.8515 -4.67546,21.31729 -13.58231,25.86123 -4.40899,2.2493 -16.49544,3.41824 -20.76833,2.00862 z m 13.13491,-12.69653 c 5.84899,-3.02463 7.7263,-13.97076 3.79044,-22.10116 -2.61868,-5.40946 -7.68967,-7.29068 -13.3159,-4.9399 -4.60416,1.92375 -6.60298,6.04293 -6.60298,13.60748 0,12.21349 7.08163,18.11187 16.12844,13.43358 z m 37.37156,12.62106 c -1.1,-0.45022 -2.9,-1.81835 -4,-3.04029 -1.90411,-2.11519 -2.0138,-3.84681 -2.28785,-36.11803 -0.28784,-33.89632 -0.28784,-33.89632 7.25,-33.89632 7.53785,0 7.53785,0 7.53785,29.41821 0,16.18002 0.27314,30.13002 0.60699,31 0.35994,0.938 1.78444,1.58179 3.5,1.58179 2.83242,0 2.89301,0.11276 2.89301,5.38337 0,4.73742 -0.26997,5.45572 -2.25,5.98634 -3.15502,0.84552 -10.86218,0.66225 -13.25,-0.31507 z m 32.77445,-1.14783 c -2.40859,-1.19224 -5.20355,-3.66437 -6.5,-5.74922 -2.14275,-3.44581 -2.29312,-4.85907 -2.59685,-24.40759 -0.32241,-20.75 -0.32241,-20.75 7.25,-20.75 7.5724,0 7.5724,0 7.5724,17.54545 0,17.51989 0.004,17.54921 2.57602,20.12148 2.17278,2.17278 3.20564,2.49157 6.59829,2.03652 2.21225,-0.29673 5.10304,-1.55483 6.42398,-2.79579 2.35638,-2.2137 2.40171,-2.5833 2.40171,-19.58197 0,-17.32569 0,-17.32569 8.01688,-17.32569 8.01688,0 8.01688,0 7.75,25.75 -0.26688,25.75 -0.26688,25.75 -7.51688,26.04381 -7.25,0.29381 -7.25,0.29381 -7.25,-3.8212 0,-4.11501 0,-4.11501 -3.26169,-0.65662 -5.40407,5.72999 -14.17714,7.19769 -21.46386,3.59082 z m 62.74548,0.34164 c -1.91403,-0.96165 -4.50153,-3.2775 -5.75,-5.14633 -2.11378,-3.16415 -2.26993,-4.45395 -2.26993,-18.75 0,-15.35212 0,-15.35212 -3,-15.35212 -3,0 -3,0 -3,-6 0,-6 0,-6 3,-6 2.71569,0 3.00104,-0.308 3.01101,-3.25 0.006,-1.7875 0.29315,-4.95736 0.638,-7.04414 0.627,-3.79413 0.627,-3.79413 6.73899,-3.5 6.112,0.29414 6.112,0.29414 6.40769,7.04414 0.29569,6.75 0.29569,6.75 6.75,6.75 6.45431,0 6.45431,0 6.45431,6 0,6 0,6 -6,6 -6,0 -6,0 -6,12.87756 0,14.47444 0.44391,15.4959 6.50732,14.9735 3.39284,-0.29231 3.72289,-0.0527 5.55002,4.02828 1.06846,2.38649 1.94266,4.69107 1.94266,5.12128 0,1.48003 -8.04753,3.99938 -12.77024,3.99783 -2.60137,-8.6e-4 -6.29579,-0.78836 -8.20983,-1.75 z m 74.9736,0.87663 c -7.68757,-2.52071 -12.63162,-6.65143 -16.30781,-13.62508 -3.02629,-5.74079 -3.00985,-19.28595 0.0304,-25.06821 8.35494,-15.8902 30.96753,-19.29583 43.34939,-6.52876 12.1878,12.56696 8.72201,35.44871 -6.56552,43.34664 -4.34948,2.24705 -16.09661,3.32138 -20.50647,1.87541 z m 15.04644,-13.66125 c 4.33129,-3.91977 5.19179,-17.1281 1.48448,-22.78617 -3.87153,-5.9087 -13.81608,-5.52702 -17.59811,0.67543 -4.08811,6.70442 -1.7043,20.4105 4.07366,23.42217 3.13904,1.63617 9.55514,0.93731 12.03997,-1.31143 z m 98.46003,13.13044 c -6.20577,-1.53363 -11.5,-4.24419 -11.5,-5.88782 0,-0.6832 1.16382,-2.95489 2.58626,-5.0482 1.90982,-2.81056 3.02141,-3.61581 4.25,-3.07877 8.27183,3.61578 12.7457,4.56274 16.39333,3.46988 2.96298,-0.88773 3.77041,-1.6302 3.77041,-3.46706 0,-3.09283 -1.34855,-4.06292 -8.5,-6.11457 -8.02611,-2.30257 -13.13679,-4.98377 -15.04194,-7.8914 -1.77991,-2.71648 -2.12458,-10.77648 -0.62713,-14.665 2.54186,-6.60056 12.53649,-10.68044 23.38622,-9.54642 6.33815,0.66247 14.78285,3.83411 14.78285,5.55211 0,0.56621 -0.96487,3.01547 -2.14416,5.4428 -2.14415,4.41331 -2.14415,4.41331 -6.25,2.54871 -5.41436,-2.45885 -13.20841,-2.54444 -14.43553,-0.15853 -1.57641,3.06506 -0.20469,4.17522 8.40299,6.80073 4.62639,1.41113 9.73497,3.67923 11.35241,5.04021 3.78315,3.18331 5.46669,8.30671 4.60899,14.02624 -1.71901,11.46316 -14.88448,16.96827 -31.0347,12.97709 z m -401.26985,-1.09101 c -6.35845,-1.77659 -11.23015,-4.1895 -11.23015,-5.56218 0,-0.87429 4.68848,-10.82461 5.55777,-11.79522 0.17445,-0.19478 2.8179,0.86935 5.87433,2.36472 3.55706,1.74031 7.87854,2.9052 12.007,3.23659 6.16741,0.49507 6.58364,0.38394 9.50537,-2.53779 1.68054,-1.68055 3.05553,-3.7856 3.05553,-4.67791 0,-2.88929 -4.31628,-6.03854 -13,-9.48511 -14.78943,-5.86991 -19.82717,-10.33341 -20.73297,-18.36965 -1.08147,-9.59476 2.55212,-16.4294 11.13829,-20.95072 5.57011,-2.93312 20.42335,-3.1024 28.87644,-0.32911 3.17997,1.04328 5.96989,2.20128 6.19982,2.57332 0.22994,0.37205 -0.53499,3.26366 -1.69984,6.4258 -1.84383,5.00532 -2.38733,5.66339 -4.19982,5.08507 -11.56297,-3.68944 -15.62685,-4.17488 -20.24647,-2.41851 -3.38729,1.28785 -4.30007,2.59029 -4.32014,6.16439 -0.0194,3.46257 1.70913,4.57416 15.17634,9.75948 8.00471,3.08207 11.44654,4.9764 13.69545,7.53776 8.61136,9.8078 5.87264,24.40606 -5.87337,31.30703 -3.92206,2.30427 -5.74563,2.66774 -14.5,2.89011 -6.50285,0.16517 -11.86137,-0.26189 -15.28358,-1.21807 z m 244.43652,0.83007 c -0.36667,-0.36666 -0.66667,-12.06666 -0.66667,-26 0,-25.33333 0,-25.33333 7.5,-25.33333 7.5,0 7.5,0 7.5,26 0,26 0,26 -6.83333,26 -3.75834,0 -7.13334,-0.3 -7.5,-0.66667 z M 646.499,524.53479 c 0,-26 0,-26 6.39301,-26 6.87201,0 7.59615,0.55434 7.61808,5.83179 0.0111,2.66821 0.0111,2.66821 2.4818,-0.46593 6.11079,-7.75163 18.5317,-8.30879 26.11687,-1.17151 4.64654,4.37217 5.39024,8.39703 5.39024,29.17167 0,18.63398 0,18.63398 -7.5,18.63398 -7.5,0 -7.5,0 -7.5,-17.54545 0,-17.29518 -0.035,-17.58047 -2.45455,-20 -3.54682,-3.54683 -8.80209,-3.35176 -12.62237,0.46853 -2.92308,2.92307 -2.92308,2.92307 -2.92308,16.875 0,7.67355 -0.28125,15.35817 -0.625,17.07692 -0.625,3.125 -0.625,3.125 -7.5,3.125 -6.875,0 -6.875,0 -6.875,-26 z m -88.34501,-34.82874 c -2.53516,-2.80132 -2.19921,-9.67666 0.56752,-11.61456 3.23668,-2.26706 10.31262,-2.02157 12.77749,0.4433 2.61443,2.61443 2.71152,9.04611 0.17126,11.34501 -2.61427,2.36588 -11.31921,2.25398 -13.51627,-0.17375 z M 411.43844,462.22498 c -10.32342,-2.90833 -16.78997,-9.83624 -18.96627,-20.31942 -2.86686,-13.80959 3.28584,-26.05902 15.88933,-31.63415 5.84277,-2.58453 17.68479,-2.08048 23.6375,1.00613 11.27723,5.84749 16.59703,20.22254 12.61866,34.09789 -1.54513,5.38893 -8.23309,12.85208 -13.6977,15.28538 -5.52175,2.45874 -13.9143,3.13257 -19.48152,1.56417 z m 15.41562,-14.58751 c 2.38293,-2.37976 2.94073,-3.91843 3.37307,-9.30454 0.71773,-8.94137 -1.91546,-15.0448 -7.25034,-16.80547 -9.44031,-3.11558 -16.28675,4.14933 -15.20043,16.12952 0.62967,6.94403 2.63149,10.48229 7.04812,12.45766 4.22765,1.89085 8.54623,1.00156 12.02958,-2.47717 z m 36.03306,14.91725 c -1.16154,-0.46931 -3.07404,-2.07647 -4.25,-3.57147 -2.08995,-2.65694 -2.13812,-3.4924 -2.13812,-37.08332 0,-34.36514 0,-34.36514 7.48595,-34.36514 7.48596,0 7.48596,0 7.75,31.75 0.26405,31.75 0.26405,31.75 3.51405,32.06336 3.18786,0.30737 3.25,0.40823 3.25,5.27475 0,4.4056 -0.28735,5.07064 -2.5651,5.93664 -3.0919,1.17554 -10.13187,1.17294 -13.04678,-0.005 z m 41.42144,-0.36037 c -9.63058,-2.71055 -17.06957,-10.54217 -18.39235,-19.36309 -1.01962,-6.79927 0.0694,-16.36984 2.37751,-20.8941 2.71265,-5.31723 9.11982,-11.00717 13.8845,-12.33025 9.10242,-2.52759 19.27216,-0.80973 25.00509,4.22385 5.10178,4.47943 7.26723,9.80983 7.29373,17.95403 0.022,6.75 0.022,6.75 -16.97804,6.75 -11.01935,0 -17,0.3631 -17,1.03212 0,2.9073 3.18971,8.01462 5.87156,9.40146 4.59577,2.37656 11.95378,1.9904 17.70896,-0.92939 2.70571,-1.3727 4.97657,-2.4977 5.04634,-2.5 0.0698,-0.002 1.10932,2.27961 2.31011,5.07092 2.57155,5.97774 2.18437,6.76603 -4.79866,9.77004 -6.27751,2.70052 -16.28976,3.5141 -22.32875,1.81441 z M 520.499,429.18401 c 0,-0.19292 -0.49879,-1.7816 -1.10842,-3.53038 -1.21276,-3.47894 -5.27642,-6.11884 -9.41884,-6.11884 -3.17298,0 -8.47274,4.95594 -8.47274,7.92308 0,1.95681 0.54938,2.07692 9.5,2.07692 5.225,0 9.5,-0.15785 9.5,-0.35078 z m 41,32.79023 c -12.8301,-3.53148 -19.77964,-14.06845 -18.76218,-28.44742 1.00819,-14.24797 10.52458,-23.73623 24.83714,-24.76371 7.26536,-0.52157 17.63351,1.8484 18.55146,4.24052 0.2924,0.76199 -0.4005,3.49268 -1.53978,6.0682 -1.66882,3.77264 -2.41302,4.53573 -3.82903,3.92621 -3.31936,-1.42883 -13.67317,-1.58985 -16.20287,-0.25198 -8.53905,4.51601 -8.59683,21.87144 -0.0875,26.2718 3.73873,1.93337 10.08278,1.94069 14.68697,0.0169 1.97451,-0.825 3.75247,-1.5 3.95104,-1.5 0.19856,0 1.47929,2.20678 2.84605,4.90396 2.82622,5.57727 2.55869,6.12276 -4.16656,8.49557 -6.5891,2.32477 -14.1994,2.71492 -20.28477,1.03992 z m 48.18467,0.57113 c -3.79443,-0.8981 -7.63332,-4.15872 -10.01994,-8.51058 -1.34056,-2.44444 -1.70952,-6.84262 -1.99237,-23.75 -0.34713,-20.75 -0.34713,-20.75 7.24025,-20.75 7.58739,0 7.58739,0 7.58739,17.88922 0,16.12364 0.18867,18.12221 1.91165,20.25 2.93537,3.62503 9.93782,3.33724 14.02269,-0.57631 3.06566,-2.93709 3.06566,-2.93709 3.06566,-20.25 0,-17.31291 0,-17.31291 7.5,-17.31291 7.5,0 7.5,0 7.5,26.5 0,26.5 0,26.5 -6.89159,26.5 -6.45671,0 -6.92993,-0.15274 -7.49911,-2.42054 -0.33413,-1.33129 -0.33477,-3.13129 -10e-4,-4 0.95357,-2.48496 -0.50612,-1.85385 -3.24749,1.40409 -1.57281,1.86917 -4.41777,3.54995 -7.61694,4.5 -5.564,1.65233 -6.60407,1.69975 -11.55878,0.52703 z m 57.19827,-0.53 c -1.71438,-0.88089 -3.62688,-2.72056 -4.25,-4.08815 -0.77285,-1.69623 -1.13294,-13.27796 -1.13294,-36.43948 0,-33.95295 0,-33.95295 7.48595,-33.95295 7.48596,0 7.48596,0 7.75,31.75 0.26405,31.75 0.26405,31.75 3.51405,32.06336 3.17963,0.30657 3.25,0.41897 3.25,5.19098 0,2.68269 -0.48056,5.17463 -1.06791,5.53763 -2.52243,1.55895 -12.47211,1.51967 -15.54915,-0.0614 z m 33.11706,0.0174 c -7.81271,-2.76223 -11.71575,-10.26933 -9.54004,-18.34931 2.16758,-8.04975 10.12298,-12.83211 22.99762,-13.82493 7.54028,-0.58146 8.04242,-0.76348 8.04242,-2.91526 0,-5.18667 -8.12607,-6.82901 -19.33869,-3.90849 -3.16739,0.825 -6.12481,1.5 -6.57205,1.5 -0.44723,0 -1.32722,-2.55974 -1.95553,-5.68831 -1.34916,-6.71797 -1.44695,-6.61147 8.06368,-8.7827 11.71802,-2.67518 22.95859,-1.67861 28.9293,2.5648 5.02562,3.57173 5.66235,6.64934 6.03226,29.15644 0.34103,20.75022 0.34103,20.75022 -6.32951,20.75 -6.6077,-2.3e-4 -6.6768,-0.0287 -7.33355,-3.01883 -0.66299,-3.0186 -0.66299,-3.0186 -3.6105,-0.53843 -5.24349,4.41211 -12.37032,5.53525 -19.38541,3.05502 z m 16.52002,-11.00834 c 3.61722,-1.87053 4.97998,-4.31253 4.97998,-8.9239 0,-3.4981 -0.0765,-3.56574 -4.03212,-3.56574 -5.73332,0 -10.76366,2.33815 -11.52085,5.35501 -0.94796,3.777 -0.18589,5.96494 2.56183,7.35513 3.23967,1.63909 4.48121,1.60492 8.01116,-0.22049 z m -416.02878,6.26036 c -0.0106,-6.34848 2.82338,-57.12594 3.59986,-64.5 0.55281,-5.25 0.55281,-5.25 8.27335,-5.25 7.72053,0 7.72053,0 18.05784,22.47532 11.44509,24.88386 8.62576,26.37759 26.8495,-14.22532 3.70284,-8.25 3.70284,-8.25 11.26894,-8.25 8.21697,0 7.27425,-5.49578 12.26482,71.5 0.19445,3 0.19445,3 -6.95252,3.29173 -7.14697,0.29173 -7.14697,0.29173 -7.73965,-5.5 -0.32597,-3.18545 -1.10343,-13.89173 -1.72769,-23.79173 -0.62426,-9.9 -1.19142,-18.07062 -1.26036,-18.15694 -0.0689,-0.0863 -4.04315,8.01368 -8.83161,18 -8.70627,18.15694 -8.70627,18.15694 -14.06717,18.45139 -5.3609,0.29445 -5.3609,0.29445 -10.99686,-11.5 -3.09978,-6.48695 -7.15823,-15.08736 -9.01879,-19.11203 -3.38282,-7.31758 -3.38282,-7.31758 -4.6511,16.5 -0.69756,13.09967 -1.47293,24.15508 -1.72306,24.56758 -0.25012,0.4125 -3.35322,0.75 -6.89576,0.75 -6.44098,0 -6.44098,0 -6.44974,-5.25 z m 449.65061,1.5 c -0.34091,-2.0625 -0.62479,-13.9875 -0.63084,-26.5 -0.011,-22.75 -0.011,-22.75 6.87545,-22.75 6.88645,0 6.88645,0 7.58097,4.63141 0.69453,4.63141 0.69453,4.63141 2.56933,1.54855 2.44903,-4.02711 6.77342,-6.17996 12.41358,-6.17996 4.54966,0 4.54966,0 4.44998,5.75 -0.1586,9.14895 -0.56121,9.7433 -6.63292,9.79176 -3.67337,0.0293 -6.05725,0.65588 -8,2.10266 -2.66311,1.98324 -2.79071,2.49041 -3.38584,13.45824 -0.34014,6.26854 -0.67764,13.75984 -0.75,16.64734 -0.13156,5.25 -0.13156,5.25 -7.00072,5.25 -6.86916,0 -6.86916,0 -7.48899,-3.75 z"
       id="path1" />
  </g>
</svg>
