<?xml version="1.0" standalone="no"?>
<!DOCTYPE svg PUBLIC "-//W3C//DTD SVG 20010904//EN"
 "http://www.w3.org/TR/2001/REC-SVG-20010904/DTD/svg10.dtd">
<svg version="1.0" xmlns="http://www.w3.org/2000/svg"
 width="2724.000000pt" height="720.000000pt" viewBox="0 0 2724.000000 720.000000"
 preserveAspectRatio="xMidYMid meet">

<g transform="translate(0.000000,720.000000) scale(0.100000,-0.100000)"
fill="#000000" stroke="none">
<path d="M3111 7184 c-469 -46 -891 -170 -1286 -378 -691 -364 -1242 -961
-1550 -1682 -216 -504 -311 -1101 -260 -1624 46 -469 157 -857 356 -1250 457
-902 1275 -1546 2259 -1779 119 -28 300 -61 337 -61 17 0 18 17 16 237 l-2
238 -63 12 c-156 31 -310 66 -388 89 -406 120 -727 315 -951 579 -41 48 -78
93 -82 101 -7 12 257 14 1914 14 l1921 0 -28 -38 c-151 -203 -383 -389 -638
-512 -205 -98 -391 -158 -658 -211 l-168 -33 0 -238 c0 -214 2 -238 16 -238
35 0 255 41 369 69 594 146 1145 455 1583 889 921 914 1243 2268 832 3502
-171 514 -436 938 -829 1330 -267 267 -496 436 -822 609 -563 298 -1259 437
-1878 375z m355 -199 c166 -147 264 -333 264 -506 0 -135 -63 -299 -169 -439
-44 -57 -599 -615 -1469 -1475 -355 -351 -430 -443 -532 -658 -77 -160 -102
-268 -108 -460 -4 -165 8 -275 49 -436 10 -41 17 -76 15 -78 -8 -8 -140 154
-203 249 -198 301 -256 610 -172 918 48 175 179 399 337 575 49 55 296 302
548 549 772 756 1095 1083 1157 1172 141 203 208 383 210 562 1 45 3 82 5 82
3 0 33 -25 68 -55z m962 -270 c211 -279 197 -610 -39 -925 -90 -120 -1232
-1260 -1679 -1677 -290 -270 -477 -491 -608 -720 -105 -183 -172 -396 -172
-547 l0 -51 -20 25 c-39 50 -99 158 -128 231 -109 274 -73 578 105 884 127
219 185 280 1423 1491 530 518 647 640 777 810 150 198 212 332 248 537 6 38
7 39 27 21 11 -11 40 -46 66 -79z m391 -838 c41 -128 52 -201 52 -332 0 -218
-66 -394 -223 -592 -72 -91 -131 -150 -957 -964 -343 -338 -662 -659 -709
-714 -209 -248 -360 -532 -422 -795 -42 -179 -44 -411 -5 -560 9 -34 14 -64
11 -67 -8 -8 -123 105 -170 167 -81 106 -129 208 -167 358 -30 114 -32 342 -5
472 54 259 156 482 325 707 78 104 182 209 856 868 945 923 1100 1085 1250
1305 62 91 115 197 115 230 0 41 20 8 49 -83z m775 -335 c44 -131 58 -219 58
-342 0 -232 -79 -413 -276 -632 -33 -37 -374 -375 -758 -750 -384 -376 -738
-728 -786 -783 -260 -297 -410 -552 -479 -812 -21 -81 -26 -122 -26 -237 l-1
-138 -24 28 c-46 56 -144 209 -177 278 -19 39 -46 112 -61 161 -24 80 -27 106
-27 235 0 129 3 155 27 234 50 164 143 323 288 493 43 50 403 410 801 799 397
389 782 768 855 843 255 260 448 500 515 642 18 37 35 65 39 63 3 -2 18 -39
32 -82z m-29 -1255 c25 -148 17 -338 -19 -461 -33 -108 -98 -237 -167 -329
-29 -38 -220 -236 -426 -440 -206 -205 -413 -417 -460 -472 -101 -120 -229
-308 -284 -417 -44 -87 -99 -242 -99 -279 -1 -57 -17 -52 -65 21 -192 289
-133 712 153 1097 60 80 315 333 802 795 195 185 378 362 405 394 59 68 125
164 125 182 0 6 4 12 9 12 4 0 16 -47 26 -103z"/>
<path d="M16855 6578 c-118 -30 -314 -70 -430 -87 l-110 -17 -3 -45 -3 -46 72
-12 c39 -6 83 -18 98 -25 59 -31 56 19 56 -1050 0 -930 -1 -983 -18 -1014 -22
-39 -79 -68 -158 -79 l-54 -8 -3 -53 -3 -52 440 0 441 0 0 50 c0 44 -3 50 -22
54 -13 2 -50 9 -82 15 -73 13 -103 32 -124 79 -15 34 -17 141 -22 1173 l-5
1135 -70 -18z"/>
<path d="M18328 6485 c-54 -8 -107 -16 -117 -20 -14 -4 -34 -50 -81 -188 -33
-100 -78 -230 -99 -289 l-38 -107 48 -20 c26 -12 51 -21 56 -21 8 0 455 601
461 621 2 5 -2 16 -8 24 -15 18 -86 18 -222 0z"/>
<path d="M7861 6243 c-8 -115 -16 -252 -20 -305 l-6 -98 60 0 60 0 28 103 c48
178 105 274 182 308 54 24 188 39 353 39 l132 0 0 -935 c0 -641 -3 -950 -11
-985 -20 -94 -83 -139 -214 -155 -124 -15 -115 -9 -115 -70 l0 -55 550 0 550
0 0 55 c0 53 0 54 -32 59 -18 3 -67 10 -108 16 -102 15 -149 42 -180 105 l-25
50 -3 959 -2 959 197 -6 c227 -6 282 -18 344 -74 48 -43 87 -124 128 -262 17
-58 33 -107 36 -109 2 -2 27 -1 54 3 51 7 51 7 51 43 0 21 -4 89 -9 152 -5 63
-13 181 -16 263 l-7 147 -982 0 -982 0 -13 -207z"/>
<path d="M21125 6381 c-95 -43 -150 -152 -126 -249 28 -109 108 -175 215 -176
132 -1 226 92 226 221 -1 132 -91 223 -222 223 -30 0 -71 -9 -93 -19z"/>
<path d="M10335 5689 c-265 -38 -544 -277 -643 -552 -44 -121 -56 -195 -55
-342 1 -155 22 -246 84 -375 55 -111 188 -248 291 -298 136 -66 319 -90 460
-61 133 28 329 151 428 270 79 94 75 84 44 126 -16 21 -29 40 -30 41 -2 2 -27
-14 -56 -37 -171 -129 -390 -157 -560 -70 -101 51 -199 176 -242 307 -20 60
-46 204 -46 253 0 3 71 9 158 13 249 10 714 46 749 57 49 16 63 43 63 124 0
137 -49 258 -150 368 -124 135 -314 202 -495 176z m66 -141 c96 -28 171 -142
189 -284 13 -102 2 -126 -60 -136 -25 -3 -147 -7 -273 -7 l-227 -1 6 43 c21
134 95 287 168 342 66 51 128 64 197 43z"/>
<path d="M12012 5689 c-94 -11 -235 -58 -345 -117 -241 -127 -420 -346 -477
-582 -24 -102 -26 -263 -5 -362 55 -260 231 -460 480 -544 97 -33 279 -45 366
-24 152 36 339 163 449 305 l43 55 -28 40 c-15 22 -29 40 -31 40 -2 0 -31 -20
-64 -44 -233 -172 -497 -150 -685 56 -110 120 -157 258 -158 463 -1 205 43
349 133 442 136 142 329 126 534 -43 37 -30 76 -58 89 -63 74 -28 181 107 162
205 -22 118 -240 199 -463 173z"/>
<path d="M13200 5689 c-48 -20 -326 -87 -432 -105 l-108 -18 0 -47 0 -47 53
-12 c71 -17 103 -38 124 -80 17 -32 18 -78 18 -545 0 -455 -2 -514 -17 -547
-19 -42 -54 -64 -130 -78 -29 -6 -63 -13 -75 -16 -20 -4 -23 -11 -23 -54 l0
-50 411 0 410 0 -3 52 -3 53 -43 7 c-66 11 -105 38 -120 82 -9 29 -12 156 -10
535 l3 496 62 42 c116 78 231 103 330 73 88 -27 151 -108 172 -225 15 -78 15
-826 0 -893 -13 -65 -44 -93 -117 -107 l-57 -11 -3 -52 -3 -52 396 0 396 0 -3
52 -3 51 -62 13 c-78 16 -99 27 -120 67 -16 29 -19 80 -24 527 -6 544 -7 552
-71 671 -38 73 -121 152 -192 185 -66 30 -178 45 -257 34 -94 -13 -189 -65
-384 -208 l-60 -44 -3 131 c-3 139 -3 140 -52 120z"/>
<path d="M15310 5689 c-218 -23 -442 -154 -572 -334 -182 -253 -210 -615 -70
-891 96 -187 232 -303 442 -376 94 -32 97 -33 275 -33 176 0 182 1 266 31 120
43 204 92 288 170 161 150 244 336 258 584 29 520 -372 904 -887 849z m192
-166 c178 -97 272 -422 247 -849 -14 -225 -57 -356 -146 -433 -53 -47 -94 -61
-178 -61 -79 0 -133 26 -201 95 -105 108 -173 300 -195 550 -47 527 178 858
473 698z"/>
<path d="M18035 5688 c-175 -20 -350 -105 -480 -233 -130 -128 -207 -280 -236
-468 -16 -101 -6 -295 20 -382 62 -212 202 -379 396 -474 113 -56 180 -72 334
-78 210 -9 351 27 503 126 193 126 317 338 349 594 33 271 -43 510 -219 690
-174 177 -405 255 -667 225z m170 -153 c121 -54 210 -199 250 -406 36 -186 36
-489 1 -640 -50 -216 -139 -309 -294 -309 -86 0 -153 31 -215 100 -114 126
-181 340 -194 612 -22 474 182 764 452 643z"/>
<path d="M19754 5689 c-281 -33 -504 -209 -559 -440 -57 -245 48 -488 256
-587 l60 -29 -50 -46 c-59 -55 -143 -111 -230 -152 l-63 -30 4 -45 c11 -110
110 -234 233 -291 36 -17 65 -32 65 -34 0 -2 -53 -41 -117 -88 -203 -147 -248
-204 -246 -312 2 -187 167 -348 423 -411 111 -27 334 -26 452 4 206 51 363
136 494 266 134 134 195 269 197 431 1 179 -70 299 -217 369 -97 46 -180 56
-465 56 -296 0 -339 7 -390 65 -39 45 -39 78 -1 139 l30 47 63 -8 c96 -12 245
-7 322 12 284 69 458 272 459 535 0 99 -19 173 -64 244 l-31 48 106 -7 106 -7
37 40 c21 22 54 69 75 103 53 91 51 93 -153 69 -258 -29 -322 -29 -402 3 -133
54 -262 72 -394 56z m140 -130 c22 -6 56 -28 80 -53 162 -161 170 -594 14
-743 -42 -40 -76 -53 -139 -53 -114 0 -201 89 -245 251 -28 100 -26 312 3 404
53 163 153 231 287 194z m238 -1554 c172 -45 248 -139 235 -288 -18 -197 -191
-321 -452 -321 -161 0 -267 37 -363 128 -125 118 -132 268 -20 392 61 66 109
92 192 104 89 13 334 4 408 -15z"/>
<path d="M21400 5689 c-55 -23 -293 -79 -422 -100 l-138 -23 0 -47 c0 -52 0
-51 75 -64 60 -10 95 -33 113 -73 15 -33 17 -91 17 -542 0 -543 -1 -560 -51
-599 -22 -17 -52 -26 -161 -47 -20 -4 -23 -10 -23 -54 l0 -50 431 0 430 0 -3
52 -3 53 -55 8 c-68 9 -118 34 -144 70 -21 28 -21 39 -24 728 -1 384 -6 699
-10 698 -4 0 -18 -5 -32 -10z"/>
<path d="M22659 5690 c-199 -24 -437 -142 -591 -293 -81 -80 -130 -149 -177
-247 -56 -118 -73 -186 -78 -325 -6 -148 16 -257 79 -385 34 -68 60 -103 133
-177 78 -79 103 -98 185 -137 126 -61 213 -79 360 -73 96 3 126 8 183 32 76
31 168 88 241 148 58 49 166 172 166 190 -1 6 -14 27 -29 45 l-29 34 -47 -36
c-149 -114 -297 -150 -450 -111 -88 23 -152 62 -230 140 -125 125 -177 269
-177 490 0 200 43 333 138 435 86 92 211 118 337 70 58 -22 168 -92 239 -152
50 -41 89 -40 136 4 64 61 88 148 58 206 -53 101 -254 165 -447 142z"/>
<path d="M24009 5690 c-282 -33 -531 -208 -650 -455 -64 -133 -82 -217 -83
-385 -1 -167 13 -235 74 -365 92 -198 255 -336 480 -407 66 -20 95 -23 245
-23 150 0 179 3 245 23 138 43 225 97 331 202 83 82 103 108 143 190 73 150
89 226 90 415 1 186 -10 238 -79 380 -123 253 -360 409 -650 427 -44 3 -110 2
-146 -2z m178 -162 c181 -91 289 -456 255 -866 -13 -155 -30 -229 -71 -317
-52 -112 -128 -164 -239 -165 -179 0 -315 156 -380 436 -46 196 -48 469 -5
629 72 269 245 380 440 283z"/>
<path d="M9365 3379 c-102 -28 -298 -66 -435 -86 l-120 -16 0 -52 0 -52 68 -7
c79 -8 127 -29 156 -69 20 -27 21 -44 24 -313 2 -157 1 -291 -1 -298 -4 -10
-22 -10 -89 2 -188 32 -451 -30 -636 -151 -148 -96 -259 -223 -331 -379 -101
-216 -101 -482 0 -698 111 -238 367 -409 611 -410 89 0 145 22 304 120 71 44
132 80 137 80 4 0 7 -47 7 -103 l0 -104 81 23 c89 26 325 77 434 94 131 20
123 15 127 71 1 27 3 49 3 49 0 1 -40 7 -89 15 -100 15 -135 35 -153 86 -9 25
-12 307 -12 1127 -1 600 -4 1092 -8 1091 -5 -1 -39 -10 -78 -20z m-459 -1062
c28 -14 74 -51 102 -82 l52 -57 0 -498 0 -499 -42 -25 c-161 -93 -349 -66
-482 70 -130 131 -188 340 -166 593 25 281 136 462 320 522 49 16 162 4 216
-24z"/>
<path d="M12260 3146 c0 -61 -6 -57 105 -71 94 -13 155 -50 182 -113 26 -61
25 -180 -2 -537 -14 -192 -32 -440 -40 -550 -30 -405 -60 -648 -91 -725 -31
-76 -108 -123 -224 -137 l-50 -6 0 -58 0 -59 423 0 422 0 -1 57 c-2 53 -4 58
-25 60 -67 7 -166 27 -194 39 -43 17 -82 65 -97 117 -18 63 -14 474 11 977 27
545 31 620 39 620 4 0 40 -82 81 -183 41 -100 129 -317 196 -482 67 -165 200
-491 295 -725 94 -234 176 -433 181 -442 7 -13 22 -18 49 -18 33 0 42 5 53 28
8 15 133 302 277 637 489 1133 527 1219 538 1223 9 3 12 -173 14 -715 2 -848
1 -893 -21 -958 -24 -75 -58 -93 -223 -120 l-38 -6 0 -54 0 -55 505 0 505 0 0
54 0 55 -47 6 c-83 11 -164 34 -193 55 -40 28 -60 87 -70 209 -11 127 -35
1143 -35 1461 0 315 1 317 253 355 l42 7 0 54 0 54 -337 0 -338 0 -21 -48
c-11 -26 -178 -393 -369 -815 -339 -745 -349 -767 -363 -741 -13 24 -252 561
-595 1332 l-121 272 -338 0 -338 0 0 -54z"/>
<path d="M19222 2846 l-171 -131 -1 -132 0 -133 -77 -1 -78 0 -43 -55 c-65
-82 -60 -88 78 -94 l115 -5 6 -570 c4 -427 9 -580 18 -610 59 -180 174 -265
362 -265 82 0 136 18 307 104 l133 67 -7 32 c-3 18 -10 42 -15 54 l-8 22 -53
-18 c-172 -59 -277 -18 -324 125 -18 55 -19 92 -19 559 l0 500 180 5 180 5 17
35 c14 29 16 43 7 73 l-10 37 -187 2 -187 3 -5 254 c-5 244 -6 254 -25 261
-17 6 -54 -18 -193 -124z"/>
<path d="M10545 2490 c-258 -46 -521 -273 -627 -541 -82 -206 -82 -475 0 -676
84 -206 270 -363 480 -408 107 -22 245 -20 328 6 176 54 326 164 452 331 11
14 9 23 -14 57 -15 23 -29 41 -31 41 -3 0 -22 -13 -42 -28 -94 -74 -205 -119
-316 -129 -237 -20 -445 141 -510 395 -19 74 -35 204 -26 213 3 4 110 12 236
18 234 12 555 36 634 47 26 3 53 15 67 29 21 21 24 33 24 103 0 228 -162 445
-386 521 -72 24 -198 34 -269 21z m79 -141 c92 -25 170 -145 189 -290 15 -112
5 -124 -105 -132 -46 -4 -167 -7 -270 -7 l-187 0 5 33 c32 176 94 300 183 361
64 44 116 54 185 35z"/>
<path d="M15985 2494 c-363 -53 -630 -287 -715 -629 -18 -70 -23 -119 -23
-220 0 -160 16 -231 85 -375 44 -92 61 -115 142 -195 77 -77 106 -98 186 -138
144 -70 197 -81 385 -82 187 0 242 11 380 80 205 101 346 275 406 501 30 113
37 322 14 435 -72 359 -362 605 -733 623 -53 2 -110 2 -127 0z m157 -156 c27
-11 69 -43 98 -74 126 -133 189 -390 177 -729 -13 -380 -112 -555 -316 -555
-243 0 -411 316 -411 772 0 332 92 539 267 604 47 17 119 10 185 -18z"/>
<path d="M17495 2468 c-55 -16 -183 -47 -285 -67 l-185 -38 0 -43 0 -43 63
-17 c34 -10 72 -26 84 -36 47 -43 48 -51 48 -588 0 -545 -2 -563 -52 -595 -30
-18 -115 -41 -155 -41 l-33 0 0 -55 0 -55 410 0 410 0 0 54 0 53 -43 5 c-65 8
-100 28 -122 73 -19 38 -20 64 -23 537 l-4 497 78 51 c197 128 391 107 468
-53 42 -87 48 -164 44 -595 -3 -342 -6 -402 -20 -434 -19 -42 -58 -66 -123
-75 l-45 -6 0 -53 0 -54 395 0 395 0 0 54 0 53 -51 6 c-28 4 -67 14 -87 24
-67 33 -66 24 -73 568 -5 417 -8 499 -22 548 -59 204 -182 320 -368 349 -141
21 -241 -15 -450 -162 -70 -50 -130 -90 -133 -90 -3 0 -6 59 -6 130 0 72 -3
130 -7 129 -5 0 -53 -14 -108 -31z"/>
<path d="M20648 2490 c-154 -26 -284 -97 -422 -229 -127 -123 -201 -250 -248
-422 -18 -69 -22 -110 -22 -229 0 -167 14 -236 74 -368 121 -261 358 -402 653
-390 96 4 124 10 195 37 46 18 116 55 156 82 67 44 186 156 235 220 l21 27
-31 42 c-29 40 -31 41 -52 26 -124 -91 -224 -134 -335 -143 -288 -23 -503 195
-538 546 l-7 71 46 0 c152 0 808 47 854 61 52 16 73 52 73 123 0 253 -197 487
-455 541 -76 16 -124 17 -197 5z m106 -155 c87 -42 156 -180 156 -316 0 -61
-3 -70 -22 -80 -16 -8 -107 -14 -280 -17 -297 -5 -270 -18 -237 110 64 254
222 379 383 303z"/>
<path d="M21940 2474 c-103 -34 -264 -72 -390 -93 l-105 -17 -3 -45 -3 -46 61
-12 c45 -9 71 -21 97 -44 32 -30 35 -39 45 -116 6 -50 8 -263 6 -525 -4 -400
-6 -445 -22 -484 -23 -53 -70 -80 -156 -89 l-60 -6 0 -53 0 -54 461 0 460 0
-3 52 c-3 53 -3 53 -38 56 -88 6 -171 25 -195 44 -58 45 -59 49 -63 471 l-4
388 33 67 c41 84 112 157 168 172 50 13 103 1 152 -35 72 -52 94 -60 140 -46
55 16 131 93 147 147 40 137 -24 252 -158 284 -89 21 -165 -6 -258 -94 -58
-54 -153 -176 -187 -239 -11 -20 -23 -37 -27 -37 -5 0 -8 86 -8 190 0 105 -3
190 -7 189 -5 -1 -42 -12 -83 -25z"/>
<path d="M23350 2478 c-89 -32 -277 -77 -397 -95 l-113 -18 0 -46 0 -46 53
-12 c29 -6 67 -20 85 -31 63 -39 63 -36 60 -610 -3 -506 -4 -519 -24 -547 -27
-38 -82 -63 -149 -70 l-55 -6 0 -53 0 -54 455 0 455 0 0 55 0 55 -45 0 c-54 0
-141 18 -177 36 -62 32 -63 40 -66 476 l-3 397 28 58 c38 78 116 158 168 172
61 16 154 -14 195 -64 23 -28 74 -29 128 -1 140 71 175 250 71 355 -70 69
-177 87 -264 44 -89 -45 -187 -148 -279 -293 l-41 -65 -3 193 c-2 144 -5 192
-15 191 -6 -1 -37 -10 -67 -21z"/>
<path d="M24828 2490 c-255 -46 -514 -260 -620 -512 -54 -129 -71 -219 -71
-373 0 -165 19 -251 85 -385 54 -110 177 -238 283 -292 140 -73 339 -99 480
-63 148 38 322 152 430 285 l57 70 -28 38 c-15 20 -28 38 -30 40 -1 2 -37 -21
-81 -51 -225 -153 -471 -141 -644 32 -99 99 -155 234 -173 414 l-7 67 44 0
c75 0 557 30 714 44 155 14 184 23 202 63 16 34 13 139 -4 208 -48 182 -207
344 -394 401 -60 18 -183 25 -243 14z m127 -168 c78 -54 126 -154 141 -287 5
-51 3 -64 -13 -84 l-20 -24 -266 -5 c-147 -3 -267 -2 -267 1 0 3 5 30 11 59
49 245 174 388 324 373 32 -3 64 -14 90 -33z"/>
<path d="M25520 2402 l0 -48 69 -17 c82 -22 140 -67 176 -137 83 -163 483
-1234 492 -1315 6 -62 -24 -149 -94 -268 -64 -107 -141 -189 -238 -252 -114
-74 -130 -94 -130 -160 0 -43 6 -61 30 -96 64 -91 199 -136 272 -90 28 18 36
34 69 138 71 228 210 590 412 1068 44 105 135 323 202 485 220 532 252 583
387 622 l73 22 0 48 0 48 -315 0 -315 0 0 -49 0 -49 48 -12 c121 -30 152 -69
127 -161 -34 -129 -271 -798 -289 -816 -3 -4 -8 -4 -9 -2 -7 8 -295 844 -301
875 -10 46 22 81 95 101 l59 16 0 49 0 48 -410 0 -410 0 0 -48z"/>
</g>
</svg>
